<svg preserveAspectRatio="xMidYMid meet" viewBox="0 0 3464.000000 3464.000000" height="3464.000000pt" width="3464.000000pt" xmlns="http://www.w3.org/2000/svg" version="1.0">

<g stroke="none" fill="#000000" transform="translate(0.000000,3464.000000) scale(0.100000,-0.100000)">
<path d="M22968 24993 c-17 -4 -24 -52 -30 -215 -2 -36 -6 -70 -10 -74 -5 -4
-8 -38 -8 -75 0 -37 -4 -71 -10 -74 -5 -3 -10 -40 -10 -81 0 -46 -4 -74 -11
-74 -6 0 -10 -25 -9 -67 1 -38 0 -75 -4 -83 -8 -20 -13 -240 -5 -240 11 0 26
-236 22 -340 -5 -125 -6 -142 -14 -155 -4 -5 -10 -107 -13 -225 -8 -238 1
-337 36 -410 18 -36 22 -62 21 -132 0 -49 3 -88 7 -88 5 0 10 5 12 11 2 6 3
-41 3 -104 0 -114 0 -115 -32 -155 -46 -57 -57 -118 -50 -281 3 -75 6 -358 7
-628 1 -271 4 -493 8 -493 10 0 5 -402 -6 -485 -7 -50 -6 -72 2 -77 7 -5 7 -8
-3 -8 -11 0 -11 -3 -1 -15 8 -9 12 -64 13 -165 2 -137 0 -150 -15 -150 -10 0
-18 -4 -18 -8 0 -13 -57 -42 -83 -42 -14 0 -27 6 -29 12 -3 9 -55 14 -193 17
l-188 3 17 -23 c19 -28 21 -53 3 -67 -9 -8 -27 -3 -66 18 -29 16 -57 27 -62
25 -4 -3 -10 -1 -14 5 -4 6 -67 10 -160 10 -85 0 -156 4 -159 9 -4 5 -40 12
-81 16 -41 4 -75 11 -75 14 0 4 -11 14 -25 21 -18 10 -22 16 -13 22 8 4 8 8 2
8 -6 0 -21 -11 -33 -24 -17 -18 -19 -25 -9 -29 7 -2 10 -8 6 -12 -4 -4 -13 -3
-20 3 -20 16 -588 7 -599 -9 -5 -8 -26 -10 -68 -6 -34 3 -64 1 -67 -4 -3 -5
-16 -9 -30 -9 -13 0 -24 -4 -24 -9 0 -5 -21 -12 -46 -16 -25 -3 -48 -13 -51
-21 -4 -11 -27 -14 -97 -14 -51 0 -202 -3 -336 -7 -224 -6 -243 -8 -248 -25
-2 -10 -9 -18 -14 -18 -5 0 -6 5 -3 10 4 6 -45 10 -139 10 -106 0 -146 -3
-149 -12 -4 -10 -7 -10 -18 0 -7 6 -26 12 -41 12 -15 0 -28 5 -28 10 0 6 -11
10 -24 10 -14 0 -27 4 -31 10 -3 5 -12 7 -19 4 -8 -3 -17 -1 -21 5 -3 6 -21
11 -40 11 -19 0 -37 5 -40 10 -4 6 -10 8 -14 5 -5 -2 -16 2 -27 9 -10 8 -24
11 -32 8 -8 -3 -18 1 -22 9 -10 15 -110 15 -140 -1 -10 -6 -32 -10 -49 -10
-16 0 -32 -4 -35 -9 -3 -5 -24 -7 -46 -4 -26 4 -40 2 -40 -6 0 -6 -17 -11 -41
-11 -32 0 -39 -3 -31 -12 5 -7 13 -28 17 -45 7 -33 20 -43 27 -21 3 9 6 9 12
0 4 -7 2 -12 -3 -12 -6 0 -11 -11 -11 -25 0 -14 4 -25 9 -25 5 0 8 8 7 17 -1
22 73 38 81 17 2 -7 11 -10 18 -8 7 3 27 -2 44 -10 34 -18 77 -21 86 -6 3 6
19 10 36 10 24 0 29 -4 29 -24 0 -14 -4 -28 -10 -31 -5 -3 -10 -17 -10 -31 0
-13 -4 -24 -10 -24 -5 0 -10 -6 -10 -14 0 -21 -16 -28 -37 -17 -10 5 -29 14
-43 20 -14 7 -41 21 -60 31 -42 23 -93 25 -110 5 -10 -12 -9 -16 4 -21 9 -3
16 -10 16 -16 0 -5 -4 -6 -10 -3 -12 8 -13 -27 -1 -77 7 -29 6 -35 -6 -31 -8
3 -11 13 -7 25 4 14 2 18 -5 14 -6 -4 -11 -29 -11 -57 0 -37 4 -49 15 -49 19
0 19 -18 0 -61 l-14 -34 -1 33 c0 17 -4 32 -8 32 -5 0 -12 -42 -15 -92 -4 -51
-9 -109 -12 -129 l-5 -36 58 -18 c31 -9 73 -22 92 -27 19 -6 42 -13 50 -16 8
-3 20 -4 27 -3 6 1 14 -3 18 -9 3 -5 17 -10 30 -10 13 0 27 -4 30 -10 3 -5 15
-10 26 -10 10 0 27 -4 37 -10 9 -5 58 -21 107 -37 50 -15 93 -31 96 -35 3 -5
29 -11 58 -13 29 -2 55 -6 58 -9 10 -10 243 -7 243 3 0 5 7 12 16 15 8 3 12 2
9 -4 -3 -6 -3 -15 1 -21 5 -8 8 -8 14 0 4 7 7 -4 8 -24 1 -24 -3 -35 -12 -35
-8 0 -17 -6 -19 -12 -4 -10 -6 -10 -6 0 -1 7 6 15 14 18 25 10 17 23 -12 21
-14 -1 -28 -8 -31 -16 -3 -9 0 -11 8 -6 9 5 11 4 6 -3 -4 -7 -12 -12 -17 -12
-11 0 -69 -63 -82 -89 -5 -9 10 4 32 28 23 24 41 39 41 34 0 -6 -10 -21 -23
-35 -12 -13 -23 -35 -24 -47 -2 -26 -10 -37 -19 -28 -4 4 -1 13 6 21 11 14 9
14 -17 1 -36 -18 -60 -43 -65 -70 -2 -11 -10 -19 -17 -17 -9 2 -11 -3 -7 -13
3 -9 6 -18 6 -20 0 -2 10 -1 23 1 12 2 16 1 8 -2 -16 -7 -51 -41 -51 -49 0 -3
16 -4 36 -1 36 3 36 3 31 -28 -5 -32 -5 -32 36 -30 46 3 93 3 147 2 19 -1 57
2 84 7 33 5 47 5 43 -2 -4 -6 -25 -13 -48 -16 -23 -3 -45 -10 -48 -16 -4 -6
-43 -16 -86 -22 -44 -6 -83 -13 -87 -15 -13 -8 -9 -35 5 -33 25 3 39 -1 35
-12 -4 -13 -94 -49 -121 -49 -10 0 -31 -14 -46 -30 -18 -20 -41 -33 -67 -37
-21 -3 -43 -9 -49 -13 -5 -4 -22 -10 -37 -14 -14 -3 -34 -9 -45 -12 -16 -6
-16 -5 2 9 16 14 18 18 6 26 -8 5 -11 16 -8 25 4 9 2 16 -3 16 -6 0 -10 -6
-10 -14 0 -7 -7 -19 -15 -26 -8 -7 -12 -16 -9 -21 3 -5 2 -14 -2 -20 -4 -8 -9
-7 -15 2 -7 11 -9 10 -9 -3 0 -10 -4 -18 -10 -18 -5 0 -10 -6 -10 -13 0 -8
-10 -22 -21 -33 -12 -10 -25 -28 -30 -39 -15 -33 -33 -58 -56 -78 -13 -10 -23
-24 -23 -31 0 -7 -9 -21 -20 -31 -11 -10 -20 -24 -20 -31 0 -7 -6 -17 -13 -21
-7 -4 -21 -21 -32 -37 -41 -60 -55 -81 -61 -95 -4 -7 -15 -23 -26 -35 -10 -11
-43 -49 -74 -84 -31 -35 -52 -68 -48 -74 4 -6 3 -8 -3 -5 -10 6 -70 -80 -65
-95 1 -4 -4 -7 -10 -6 -7 2 -12 -3 -10 -9 1 -7 -2 -13 -6 -13 -13 0 -58 -74
-73 -117 -7 -21 -20 -53 -31 -71 -10 -18 -18 -37 -18 -43 0 -10 -28 -78 -52
-126 -8 -17 -8 -33 0 -60 6 -20 9 -40 6 -45 -3 -5 -1 -14 4 -21 10 -13 23 -70
22 -104 0 -12 5 -25 10 -28 6 -3 10 -21 10 -39 0 -17 6 -38 12 -44 9 -9 10
-17 1 -30 -30 -49 19 -159 125 -280 174 -197 541 -567 573 -577 9 -3 20 -17
23 -30 6 -25 43 -42 68 -32 7 3 -1 8 -19 12 -23 5 -35 15 -42 36 -5 16 -8 29
-5 29 7 0 47 -23 68 -40 14 -11 17 -11 11 -1 -4 8 -2 17 6 22 21 13 123 11
137 -3 19 -19 210 -17 222 2 9 13 11 13 19 0 8 -11 39 -15 148 -17 76 -2 158
-3 183 -4 78 -2 247 8 258 15 5 3 13 -1 16 -10 9 -24 28 -5 21 23 -4 16 -2 22
5 18 14 -9 13 21 -2 37 -24 25 -58 77 -58 88 0 5 -4 10 -8 10 -5 0 -15 11 -22
25 -7 14 -15 23 -18 21 -9 -9 -29 19 -24 33 3 9 1 12 -6 7 -7 -4 -12 -16 -12
-26 0 -10 -5 -22 -12 -26 -7 -5 -8 -3 -4 5 5 7 0 21 -10 32 -20 22 -43 27 -25
5 7 -9 8 -17 2 -20 -5 -3 -11 0 -14 6 -3 10 -9 11 -26 1 -26 -16 -53 -17 -68
-2 -9 9 -20 8 -45 -2 -40 -16 -328 -15 -359 2 -11 6 -28 7 -37 3 -28 -12 -36
-11 -50 8 -14 20 -76 25 -87 8 -4 -7 -13 -7 -24 0 -10 5 -22 5 -27 0 -5 -4
-38 -10 -74 -12 -36 -2 -72 -6 -80 -8 -19 -7 -38 64 -23 88 12 20 123 31 123
12 0 -15 95 -12 109 4 18 22 133 40 173 28 120 -38 127 -38 188 -23 40 10 117
29 142 36 10 2 20 0 23 -6 10 -16 35 -10 35 9 1 12 5 9 16 -10 12 -23 19 -26
43 -22 16 4 32 1 35 -5 4 -6 11 -11 17 -11 15 0 10 36 -6 50 -8 7 -15 18 -15
24 0 15 -44 56 -60 56 -7 0 -10 7 -6 15 3 9 -3 20 -14 27 -11 7 -20 18 -20 24
0 6 -11 21 -25 34 -14 13 -25 29 -25 36 0 6 -8 18 -17 25 -15 11 -16 11 -5 -1
17 -20 15 -50 -4 -50 -12 0 -15 -6 -11 -21 5 -20 5 -20 -13 -4 -15 14 -25 15
-47 8 -15 -5 -40 -9 -55 -8 -16 1 -28 -2 -28 -7 0 -5 -8 -7 -18 -4 -10 4 -69
8 -131 10 -62 3 -115 6 -117 9 -21 20 61 62 211 107 39 12 77 24 85 27 34 13
56 10 80 -11 l24 -21 -17 25 c-10 14 -29 42 -43 62 -26 38 -26 38 -19 173 4
74 11 135 16 135 5 0 9 29 9 64 0 36 4 67 9 70 5 3 12 64 16 136 4 71 11 130
16 130 5 0 9 26 9 58 0 37 7 71 19 95 l19 37 -30 0 c-16 0 -43 -7 -61 -16 -27
-15 -39 -15 -94 -4 -91 18 -270 16 -308 -4 -30 -16 -83 -14 -135 4 -14 5 -64
11 -112 13 -93 5 -122 18 -151 69 -14 25 -14 32 -1 71 18 54 37 65 118 72 51
5 71 2 91 -11 30 -19 143 -24 287 -11 84 7 153 -2 228 -30 14 -5 50 -7 80 -5
141 11 192 -4 158 -46 -12 -15 -11 -16 5 -3 9 7 17 18 17 24 0 12 47 57 61 57
5 0 9 4 9 9 0 13 96 111 109 111 6 0 11 7 11 15 0 8 5 15 11 15 6 0 9 6 6 13
-2 6 0 21 6 32 22 45 130 205 138 205 5 0 9 7 9 15 0 8 9 20 20 27 11 7 20 17
20 23 0 6 9 16 20 23 11 7 20 18 20 25 0 7 16 28 35 47 19 19 35 38 35 43 0 6
6 15 13 21 8 6 47 53 87 104 41 50 79 92 86 92 6 0 14 18 18 39 3 21 13 41 21
45 8 3 21 18 28 33 6 15 22 36 34 46 13 10 23 24 23 31 0 7 11 23 25 36 14 13
25 28 25 33 0 5 11 18 25 29 14 11 25 25 25 32 0 7 15 26 33 43 l32 32 755 -2
755 -2 3 -83 c2 -67 6 -84 20 -89 9 -4 42 -23 72 -44 30 -20 67 -43 82 -49 23
-11 25 -16 17 -39 -20 -54 -34 -81 -41 -81 -5 0 -8 -5 -8 -12 0 -7 -31 -76
-69 -153 l-70 -140 -3 -382 c-2 -211 -6 -383 -10 -383 -3 0 -6 -21 -6 -47 0
-27 -3 -97 -7 -156 l-8 -109 -48 51 c-27 27 -49 55 -49 60 0 5 -29 36 -65 68
-36 32 -65 64 -65 71 0 6 -11 12 -24 12 -13 0 -36 6 -50 14 -32 16 -166 21
-166 6 0 -5 -5 -10 -11 -10 -5 0 -8 4 -4 9 7 13 -90 23 -145 16 -112 -15 -154
-16 -251 -2 -106 16 -291 14 -297 -3 -2 -5 -10 -6 -18 -3 -8 3 -21 0 -29 -7
-16 -13 -76 -10 -88 5 -5 6 -7 4 -4 -5 2 -8 -5 -19 -16 -25 -10 -5 -26 -23
-35 -40 -10 -16 -20 -32 -23 -35 -3 -3 -14 -20 -24 -37 -11 -18 -23 -33 -27
-33 -4 0 -8 -9 -8 -20 0 -11 -3 -20 -7 -20 -5 0 -16 -14 -25 -31 -10 -17 -22
-28 -28 -24 -6 3 -7 -1 -4 -10 4 -9 -1 -24 -10 -34 -10 -10 -18 -31 -20 -46
-2 -15 -7 -30 -12 -33 -13 -9 -16 -124 -5 -197 5 -35 5 -64 0 -69 -14 -16 -10
-29 6 -22 12 4 14 2 6 -11 -8 -15 2 -47 20 -63 8 -7 22 -44 20 -53 0 -4 5 -10
13 -13 8 -3 12 -12 9 -20 -3 -8 -1 -14 5 -14 6 0 12 5 14 12 4 10 16 10 54 1
35 -8 76 -9 139 -2 50 5 118 12 153 15 35 4 109 1 165 -5 141 -16 319 -21 334
-9 7 6 18 6 30 0 10 -5 37 -10 60 -10 52 -1 66 -9 58 -31 -4 -10 -3 -13 4 -6
5 6 11 21 13 35 4 33 37 37 87 12 23 -12 50 -19 67 -16 16 3 35 4 42 4 86 -5
83 -4 78 -30 -3 -14 -8 -44 -11 -67 -4 -24 -10 -45 -15 -48 -9 -5 -6 -62 4
-72 3 -3 6 -17 6 -30 0 -12 5 -23 10 -23 6 0 10 -11 10 -24 0 -14 5 -28 11
-31 6 -4 8 -13 5 -21 -3 -8 -1 -14 4 -14 6 0 10 -11 10 -24 0 -14 4 -27 9 -30
4 -3 11 -24 15 -46 3 -23 10 -49 16 -58 15 -28 29 -102 19 -102 -5 0 -9 -11
-9 -25 0 -14 -4 -25 -10 -25 -5 0 -10 -15 -10 -33 0 -23 -8 -41 -25 -57 -14
-13 -23 -25 -20 -28 2 -3 -20 -33 -50 -67 -30 -34 -55 -67 -55 -72 0 -5 -26
-37 -59 -71 -32 -34 -61 -68 -65 -77 -3 -8 -40 -65 -83 -126 -88 -126 -79
-112 -133 -203 -37 -61 -40 -70 -26 -85 19 -21 6 -44 -19 -35 -17 7 -17 8 1
21 10 7 13 13 7 13 -5 0 -18 -10 -29 -22 -10 -12 -13 -18 -6 -14 6 4 12 2 12
-3 0 -6 -5 -11 -12 -11 -15 0 -68 -50 -68 -64 0 -6 -6 -19 -14 -28 -12 -16
-19 -16 -102 -3 -57 10 -90 11 -92 5 -2 -6 -12 -10 -22 -10 -10 0 -22 -4 -25
-10 -3 -5 -17 -10 -30 -10 -13 0 -27 -4 -30 -10 -9 -15 -151 -12 -219 5 -85
20 -296 171 -296 211 0 8 -4 14 -10 14 -5 0 -10 7 -10 16 0 8 -4 13 -9 10 -5
-4 -16 -3 -25 0 -13 5 -14 10 -5 20 14 17 -26 111 -51 119 -9 3 -21 20 -28 38
-13 37 -77 113 -92 110 -5 -2 -7 3 -5 10 4 10 -61 99 -141 189 -13 15 -24 31
-24 35 0 7 -46 48 -93 82 -18 13 -18 12 -8 -8 13 -24 6 -26 -35 -11 -20 8 -47
5 -115 -11 -77 -19 -94 -20 -141 -10 -29 7 -82 19 -118 27 -101 23 -168 28
-184 15 -8 -7 -32 -14 -53 -16 -21 -3 -49 -7 -63 -11 -32 -9 -61 -7 -135 5
-88 16 -97 18 -129 30 -21 9 -32 8 -42 0 -8 -6 -14 -8 -14 -5 0 4 -8 0 -17
-10 -16 -15 -16 -17 0 -29 9 -7 17 -18 17 -24 0 -14 48 -61 63 -61 5 0 7 -6 5
-12 -3 -7 17 -35 44 -63 27 -28 45 -41 41 -30 -6 18 -5 18 10 6 11 -9 17 -10
17 -2 0 6 5 11 10 11 6 0 10 -6 10 -12 0 -7 5 -20 10 -28 8 -12 12 -13 19 -2
6 11 14 8 35 -13 14 -14 24 -31 21 -36 -10 -16 4 -10 25 11 11 11 29 20 40 20
12 0 20 7 20 18 0 11 3 13 8 5 5 -8 52 -14 134 -18 106 -5 129 -3 141 10 21
20 84 34 72 15 -5 -8 -4 -11 1 -7 12 7 133 -15 157 -29 12 -7 38 -8 70 -3 28
5 62 6 75 2 29 -7 46 -47 32 -73 -19 -36 -41 -39 -176 -29 -208 15 -254 13
-298 -10 -35 -18 -42 -19 -56 -6 -9 8 -24 15 -33 15 -9 0 -19 5 -22 10 -12 19
-66 11 -85 -12 -10 -13 -22 -19 -27 -15 -4 5 1 15 11 23 19 13 19 14 -7 12
-15 -1 -27 -8 -27 -16 0 -12 -3 -12 -15 -2 -9 7 -15 8 -15 2 0 -5 7 -12 15
-16 9 -3 19 -14 23 -24 13 -34 98 -121 125 -127 36 -9 53 -31 31 -39 -9 -4
-19 -4 -22 -1 -3 3 0 5 6 5 7 0 12 4 12 9 0 5 -12 9 -26 9 l-26 0 33 -34 c18
-19 35 -31 38 -27 3 3 0 8 -6 10 -20 7 -15 23 7 23 13 0 18 5 14 15 -4 8 -2
15 4 15 5 0 15 -7 22 -15 7 -8 20 -15 29 -14 12 0 12 2 -4 10 -16 7 -14 8 10
3 17 -3 43 -12 59 -20 16 -7 39 -11 51 -8 14 3 34 -1 48 -11 20 -12 30 -14 45
-6 11 6 39 8 61 5 29 -4 41 -2 41 6 0 8 10 11 29 7 16 -4 31 -2 33 3 5 17 88
-34 103 -64 14 -26 13 -31 -6 -57 -11 -16 -27 -29 -35 -29 -24 0 -28 -2 -55
-21 -20 -14 -29 -15 -37 -7 -9 9 -25 9 -64 1 -35 -7 -57 -7 -65 -1 -7 5 -16 7
-21 4 -5 -3 -18 1 -28 9 -26 19 -46 19 -42 -1 2 -10 -3 -19 -10 -21 -7 -3 -10
1 -6 10 3 9 -6 19 -25 27 -17 7 -31 17 -31 22 0 5 -5 6 -11 2 -14 -8 161 -185
175 -177 6 3 8 2 3 -2 -8 -9 30 -55 46 -55 5 0 22 -11 39 -25 16 -14 37 -25
46 -25 14 0 14 -2 3 -9 -11 -7 -2 -22 40 -70 29 -34 57 -61 61 -61 5 0 8 -7 8
-17 0 -9 14 -29 32 -45 17 -15 29 -31 26 -34 -4 -3 28 -24 69 -46 73 -38 77
-39 121 -28 83 21 145 30 163 25 24 -8 13 -40 -18 -54 -34 -16 -21 -25 37 -28
42 -1 52 3 80 32 38 39 62 37 103 -9 22 -24 28 -27 25 -12 -3 18 3 20 72 18
55 -1 78 -5 86 -17 10 -13 16 -13 40 -4 42 18 62 20 69 9 10 -16 39 -11 58 10
19 22 42 25 84 9 23 -8 30 -7 40 7 18 24 16 61 -3 68 -21 8 -14 56 10 70 14 8
20 8 23 -1 2 -7 20 -22 38 -33 22 -13 32 -26 28 -36 -3 -8 1 -14 10 -14 11 0
15 -9 14 -27 -2 -25 1 -28 25 -26 15 1 43 13 61 27 19 14 38 26 43 26 17 0 44
40 44 66 0 16 5 24 13 22 7 -3 16 -39 22 -94 10 -89 18 -114 36 -114 5 0 19
-10 31 -22 l21 -21 41 44 c23 25 88 96 146 158 58 62 106 117 108 121 3 8 -44
7 -58 0 -3 -2 -16 -4 -30 -5 -14 -2 -54 -6 -89 -10 -63 -8 -64 -8 -58 14 3 14
0 24 -12 30 -25 14 -60 87 -54 111 5 17 11 20 32 15 14 -4 28 -11 29 -16 2 -5
7 -7 10 -5 4 2 26 1 50 -4 62 -11 51 2 -20 24 -35 11 -67 22 -73 25 -5 3 -16
6 -25 7 -49 7 -97 13 -112 13 -10 1 -18 6 -18 12 0 5 5 7 10 4 6 -3 10 -2 10
3 0 13 -29 24 -42 15 -6 -3 -8 -1 -5 4 4 6 -2 13 -13 16 -11 3 -20 12 -20 21
0 12 10 16 39 16 22 0 43 5 46 10 4 6 18 10 33 9 49 -1 152 14 158 22 8 14 97
10 117 -5 9 -7 17 -23 17 -35 0 -11 5 -21 10 -21 6 0 10 -9 10 -21 0 -11 6
-33 14 -47 17 -32 50 -104 52 -114 1 -5 3 -11 4 -15 1 -5 2 -11 1 -15 0 -5 5
-8 12 -8 16 0 189 174 206 208 13 25 31 30 31 8 0 -8 7 -17 15 -20 13 -5 15
-19 11 -81 -6 -79 9 -140 36 -150 10 -4 13 -50 13 -203 0 -168 -2 -199 -16
-212 -9 -8 -20 -26 -24 -40 -4 -14 -13 -28 -19 -32 -19 -12 -3 -16 94 -19 102
-4 200 7 200 22 0 5 11 9 24 9 14 0 28 5 31 10 4 6 15 8 26 5 11 -4 19 -2 19
4 0 6 11 11 25 11 14 0 25 5 25 10 0 6 11 10 24 10 14 0 28 5 31 11 4 6 13 8
21 5 7 -3 16 -1 19 4 4 6 15 10 26 10 10 0 27 4 37 9 9 5 44 17 77 27 33 10
64 22 70 26 5 4 17 8 27 8 10 0 26 4 36 9 9 5 33 16 52 25 19 8 28 16 20 16
-11 0 -15 12 -15 50 0 59 11 63 56 21 23 -22 26 -30 15 -33 -9 -2 -12 -8 -8
-15 5 -7 19 -9 42 -4 l35 7 3 84 c3 95 -4 154 -19 145 -5 -4 -9 8 -9 24 0 21
-5 31 -15 31 -9 0 -15 -9 -15 -24 0 -48 -28 -38 -54 21 -30 65 -31 67 -11 83
13 11 20 9 38 -9 29 -26 37 -27 37 0 0 11 -4 18 -10 14 -9 -6 -14 -2 -79 55
-19 16 -37 30 -41 30 -3 0 -21 14 -39 32 l-33 32 4 91 c3 85 6 94 44 160 50
85 59 118 39 138 -20 21 -15 130 8 155 23 25 21 59 -3 72 -39 21 -43 46 -20
115 16 48 20 76 15 112 -7 49 -9 113 -5 159 1 14 13 32 26 40 12 9 21 21 18
28 -3 8 4 16 17 19 14 4 20 11 16 20 -9 24 4 27 26 7 19 -19 20 -23 8 -92 -7
-40 -24 -97 -37 -127 -29 -64 -29 -61 -4 -61 16 0 20 -7 21 -37 1 -21 3 -51 6
-68 2 -16 4 -46 4 -65 0 -19 0 -53 1 -75 1 -22 1 -77 1 -122 0 -77 1 -82 18
-72 13 6 19 6 19 -1 0 -5 5 -10 10 -10 6 0 10 14 10 30 0 17 4 30 8 30 5 0 6
24 2 53 -4 28 -6 185 -4 347 2 288 -5 650 -13 620 -13 -44 -14 -45 -23 -30 -7
12 -13 12 -32 1 -13 -7 -46 -11 -73 -9 l-49 3 3 63 c1 34 -2 62 -7 62 -5 0
-12 26 -16 58 -15 150 -19 172 -31 172 -15 0 -49 37 -38 41 8 4 43 99 43 118
0 7 -13 17 -30 22 -16 6 -30 17 -30 24 0 7 -6 15 -14 18 -13 5 -21 48 -30 167
-2 25 -6 54 -10 65 -4 11 0 8 8 -6 8 -15 27 -29 41 -31 23 -5 26 -3 23 21 -2
19 -9 26 -25 26 -11 0 -25 3 -29 8 -4 4 2 7 14 7 12 0 22 5 22 10 0 6 7 10 15
10 8 0 15 -4 15 -10 0 -5 10 -10 21 -10 20 0 21 4 15 54 -6 43 -3 63 12 95 11
23 16 41 12 41 -5 0 -22 12 -40 26 -21 18 -29 32 -25 45 5 16 -1 18 -47 21
-39 2 -53 7 -53 18 0 14 18 40 28 40 3 0 30 26 61 58 49 50 56 62 56 98 0 23
-7 55 -15 70 -17 32 -20 64 -6 64 12 0 23 53 26 128 1 35 7 68 14 75 6 6 11
19 11 28 0 10 6 19 13 22 9 3 9 7 -2 20 -11 14 -11 18 3 23 9 3 16 14 16 23 0
9 6 23 13 30 10 10 7 11 -15 6 -26 -7 -28 -5 -28 26 0 18 -5 58 -12 90 -13 64
-1 90 37 80 51 -15 57 -25 45 -70 -14 -53 -5 -66 13 -21 9 19 17 28 21 21 4
-6 3 -19 -2 -28 -5 -10 -15 -54 -22 -98 -7 -44 -17 -86 -23 -93 -7 -9 -1 -15
22 -23 28 -10 31 -15 31 -50 0 -44 12 -49 48 -21 l24 18 -2 274 c-1 225 -3
277 -15 290 -8 9 -15 24 -15 33 0 9 -4 18 -9 22 -6 3 -13 26 -17 50 -3 25 -10
45 -15 45 -9 0 -23 -20 -24 -35 -1 -5 -5 -18 -9 -28 -5 -10 -3 -23 5 -33 8
-10 9 -18 2 -22 -12 -8 -25 -68 -29 -141 -3 -61 -12 -74 -45 -69 -17 2 -25 12
-31 38 -10 44 0 117 18 135 26 25 16 37 -28 34 -24 -1 -49 -7 -57 -13 -11 -8
-13 -8 -8 1 5 7 -1 13 -15 15 -31 4 -33 24 -4 32 31 8 61 50 70 97 6 32 3 39
-19 53 -29 19 -31 35 -10 76 21 40 27 173 9 222 -7 21 -10 37 -6 34 4 -2 7 35
7 82 l0 87 28 3 c15 2 27 4 27 5 0 1 -6 22 -14 47 -16 52 -3 86 28 74 21 -8
46 -56 46 -88 0 -14 9 -32 23 -41 19 -13 20 -17 7 -25 -8 -5 -15 -22 -16 -37
0 -15 -9 -74 -18 -130 -20 -116 -18 -152 7 -177 9 -10 18 -27 19 -39 0 -12 1
-29 2 -37 1 -19 42 -25 61 -10 8 6 19 9 24 5 6 -3 25 1 43 9 18 8 47 17 63 20
17 3 55 10 85 16 30 6 69 13 87 15 43 4 50 10 58 47 4 17 16 47 26 65 11 19
17 38 14 42 -5 9 17 61 27 61 3 0 9 23 13 50 4 28 12 50 17 50 6 0 5 7 -2 16
-10 11 -14 59 -14 167 -1 84 -6 159 -11 167 -5 8 -10 26 -11 40 -4 88 -17 219
-24 242 -6 18 -5 28 3 31 32 12 -12 18 -125 18 -68 0 -137 4 -153 8 -17 5 -22
10 -12 10 23 1 21 16 -5 38 -33 26 -56 78 -72 157 -8 38 -20 72 -26 76 -9 5
-9 9 -1 14 6 4 11 18 11 32 0 13 4 24 9 24 13 0 32 112 25 148 -4 20 -2 38 7
48 11 14 11 18 -4 29 -15 11 -18 31 -19 126 0 63 2 125 5 139 4 14 4 19 1 13
-8 -18 -24 -16 -24 2 0 8 4 15 9 15 11 0 -29 83 -42 88 -4 2 -5 8 -2 13 6 8
-33 71 -47 77 -5 2 -8 15 -8 28 0 13 -5 24 -11 24 -6 0 -9 -7 -6 -15 4 -8 2
-17 -3 -20 -6 -4 -10 -18 -10 -33 0 -20 -3 -23 -9 -12 -13 19 -2 -70 21 -176
10 -47 9 -55 -13 -93 -12 -22 -30 -41 -39 -41 -9 0 -25 -10 -37 -22 -55 -63
-103 -98 -133 -98 -30 0 -36 6 -22 26 8 11 74 44 89 44 16 0 9 628 -8 673 -8
24 -10 41 -4 45 6 4 16 17 22 29 11 19 10 24 -6 33 -11 5 -28 7 -38 4 -13 -4
-14 -3 -5 3 7 5 10 17 6 26 -3 9 -1 17 4 17 18 0 27 91 11 104 -21 16 -23 86
-3 107 13 14 16 43 15 156 0 76 -1 149 -2 163 -4 43 8 120 22 136 9 12 9 22
-1 53 -7 22 -10 54 -7 73 3 20 0 39 -9 49 -9 10 -16 54 -20 122 -6 87 -4 108
8 121 14 14 17 13 31 -2 8 -9 36 -61 61 -114 39 -80 48 -110 50 -163 2 -36 0
-68 -4 -70 -15 -9 -31 -98 -21 -108 6 -6 11 -20 11 -32 0 -12 6 -27 13 -34 9
-9 12 -60 12 -185 0 -149 2 -176 17 -192 12 -14 15 -30 11 -61 -5 -35 -2 -43
16 -52 29 -16 30 -99 1 -124 -22 -18 -23 -23 -21 -112 2 -79 11 -135 22 -135
5 0 3 -11 -3 -25 -6 -14 -8 -28 -5 -32 9 -9 17 0 22 27 2 12 9 28 15 34 5 7 7
16 3 19 -3 4 -1 12 4 19 6 7 21 49 33 93 12 44 26 88 31 97 6 10 8 180 7 395
-4 572 -2 752 12 767 13 17 15 413 1 430 -5 6 -11 45 -14 86 -6 74 -8 91 -20
120 -3 8 -8 29 -10 45 -3 17 -13 62 -22 100 -8 39 -20 90 -26 115 -14 61 -20
208 -8 215 5 4 9 33 9 66 0 32 4 59 9 59 5 0 9 20 8 45 0 24 2 48 6 51 4 4 7
31 7 60 0 29 5 56 10 59 6 3 10 28 10 56 0 27 4 49 9 49 5 0 12 46 15 103 4
56 9 110 12 120 11 35 -171 187 -223 187 -5 0 -20 11 -33 25 -13 14 -29 25
-36 25 -11 0 -88 38 -159 78 -11 6 -47 23 -80 37 -133 59 -267 131 -273 146
-2 5 -11 9 -20 9 -8 0 -23 6 -31 13 -9 8 -24 12 -33 10z m625 -429 c-3 -8 0
-14 6 -14 6 0 11 -7 11 -15 0 -8 -7 -15 -15 -15 -18 0 -39 -36 -25 -45 18 -11
10 -26 -12 -23 -13 2 -23 10 -24 18 0 8 -4 25 -8 38 -6 18 -2 27 18 43 14 11
26 27 26 36 0 12 3 13 14 3 8 -6 12 -18 9 -26z m30 -288 c3 -19 3 -53 0 -75
-3 -23 -1 -52 5 -64 6 -12 13 -43 16 -68 5 -42 3 -47 -17 -53 -14 -3 -25 0
-30 10 -5 9 -18 25 -28 35 -13 13 -17 27 -13 49 4 19 1 38 -10 55 -9 13 -16
38 -16 54 0 16 -5 31 -12 33 -10 4 71 53 93 57 4 1 9 -14 12 -33z m-726 -328
c-3 -8 -6 -5 -6 6 -1 11 2 17 5 13 3 -3 4 -12 1 -19z m673 -63 c0 -8 4 -15 9
-15 6 0 22 -11 36 -24 15 -14 31 -26 36 -28 6 -2 7 -11 4 -21 -6 -13 -11 -15
-27 -6 -11 6 -32 9 -45 6 -19 -3 -27 0 -30 14 -3 11 -13 19 -23 19 -10 0 -23
7 -30 15 -7 8 -20 15 -29 15 -24 0 51 39 77 39 13 1 22 -5 22 -14z m-620 -66
c0 -6 7 -9 15 -6 25 10 26 -10 0 -27 -38 -25 -55 -21 -55 14 0 23 4 30 20 30
11 0 20 -5 20 -11z m645 -479 c3 -5 1 -10 -4 -10 -6 0 -11 5 -11 10 0 6 2 10
4 10 3 0 8 -4 11 -10z m46 -598 c7 -15 15 -30 17 -34 7 -15 -52 -8 -70 9 -21
19 -24 49 -5 56 22 7 44 -4 58 -31z m-290 -1038 c19 -9 47 -28 62 -43 23 -21
26 -31 21 -56 -3 -16 -10 -35 -16 -41 -10 -14 -7 -36 7 -46 6 -5 3 -8 -6 -8
-32 0 -53 -27 -61 -81 -19 -136 -16 -128 -69 -151 -27 -12 -49 -26 -49 -30 0
-9 -39 -26 -55 -24 -5 0 -9 4 -7 9 3 11 -13 8 -27 -5 -10 -10 -15 -10 -18 -1
-2 7 -11 9 -19 6 -7 -3 -11 -9 -8 -14 9 -16 -19 -10 -39 8 -18 17 -19 17 -32
0 -17 -24 -19 -24 -38 -8 -23 18 -21 60 3 91 25 32 25 36 -2 45 l-23 8 23 4
c12 2 22 8 22 13 0 5 16 14 35 21 l35 13 1 91 c0 49 4 82 8 72 6 -17 8 -17 20
-3 7 9 17 14 21 11 4 -3 14 3 21 13 13 15 12 16 -3 3 -11 -8 -18 -9 -18 -3 0
6 10 14 22 18 12 4 31 17 41 30 10 13 24 24 31 24 7 0 23 11 36 25 28 29 36
30 81 9z m106 -150 c-3 -3 -12 -4 -19 -1 -8 3 -5 6 6 6 11 1 17 -2 13 -5z
m237 -850 c9 -3 13 -10 10 -15 -7 -13 31 -59 67 -81 47 -29 54 -56 35 -135
-10 -37 -19 -77 -20 -88 -1 -11 -9 -34 -18 -50 -71 -139 -100 -190 -111 -197
-8 -5 0 -18 27 -42 35 -33 37 -38 31 -76 -4 -22 -8 -62 -9 -88 -1 -27 -6 -53
-10 -60 -5 -8 1 -10 22 -6 28 6 28 5 30 -43 2 -28 9 -53 17 -59 19 -14 19 -29
-1 -59 -9 -14 -30 -27 -50 -31 -18 -3 -38 -12 -45 -20 -12 -14 -67 -18 -105
-8 -12 3 -26 16 -32 29 -11 24 -2 41 62 108 15 16 20 37 22 101 1 45 -2 100
-6 124 -4 24 -4 60 1 80 8 33 6 39 -20 62 -63 56 -79 110 -45 150 7 8 15 27
19 41 5 22 -3 34 -56 87 -64 64 -72 81 -28 58 13 -7 30 -11 36 -9 6 2 14 -1
18 -6 16 -26 20 -4 20 102 l0 112 40 11 c48 14 78 16 99 8z m-1970 -590 c17
-6 22 -24 8 -24 -5 0 -17 7 -28 15 -19 15 -8 20 20 9z m-646 -61 c-10 -2 -28
-2 -40 0 -13 2 -5 4 17 4 22 1 32 -1 23 -4z m1822 -68 c16 -8 34 -25 40 -36 7
-11 18 -18 25 -15 9 3 12 0 8 -10 -3 -9 12 -33 38 -62 24 -26 59 -66 78 -88
34 -41 50 -47 121 -45 199 4 205 4 191 -12 -10 -13 -125 -45 -127 -36 0 2 -8
-2 -17 -10 -14 -11 -20 -11 -32 -1 -12 10 -18 10 -30 0 -10 -8 -28 -9 -57 -4
-24 4 -46 8 -50 8 -3 1 -10 4 -14 9 -4 4 -22 7 -41 7 -18 0 -33 4 -33 8 0 5
-13 7 -29 4 -16 -2 -32 1 -35 7 -4 6 -20 11 -36 11 -16 0 -32 5 -35 10 -3 6
-17 10 -30 10 -13 0 -34 4 -47 9 -13 5 -44 15 -70 22 -27 8 -48 19 -48 25 0
19 63 65 71 52 4 -6 14 -3 28 11 16 16 19 26 12 40 -8 14 -3 25 29 56 24 23
43 34 51 30 8 -5 10 -4 5 3 -10 16 -1 15 34 -3z m-3680 -30 c0 -8 -4 -15 -10
-15 -5 0 -10 7 -10 15 0 8 5 15 10 15 6 0 10 -7 10 -15z m1075 -5 c-10 -11
-23 -20 -30 -20 -7 0 -20 -9 -30 -20 -10 -11 -29 -20 -42 -20 -12 0 -23 -5
-23 -11 0 -6 7 -9 15 -5 8 3 15 1 15 -4 0 -5 -9 -12 -20 -15 -11 -3 -20 -15
-20 -26 0 -10 -6 -19 -14 -19 -8 0 -16 -11 -20 -23 -3 -13 -17 -35 -31 -49
-24 -24 -59 -114 -50 -129 3 -4 -4 -9 -15 -12 -22 -6 -26 -28 -9 -59 8 -15 8
-19 0 -14 -8 5 -11 -24 -11 -98 0 -64 4 -106 10 -106 6 0 10 -10 10 -23 0 -13
9 -33 21 -45 23 -26 21 -58 -3 -54 -10 1 -19 -7 -24 -20 l-7 -22 -17 22 c-10
12 -28 22 -39 22 -12 0 -24 8 -27 18 -3 9 -10 28 -16 42 -6 14 -12 38 -13 55
-2 16 -8 31 -14 33 -6 2 -11 26 -11 53 0 37 4 49 15 49 10 0 15 10 15 30 0 19
5 30 14 30 10 0 15 17 18 61 1 34 0 63 -3 65 -4 2 -9 15 -11 29 -3 13 -1 22 3
19 5 -3 9 0 9 5 0 6 7 11 15 11 12 0 15 9 13 35 -1 19 -6 35 -11 35 -4 0 -5 5
-2 10 4 6 10 8 14 5 15 -9 80 72 86 108 6 33 9 35 56 41 27 4 49 11 49 15 0 5
-10 7 -22 3 -14 -3 -19 -2 -14 6 5 8 40 12 98 12 90 0 91 0 73 -20z m2274 -20
c13 -12 21 -26 17 -35 -8 -22 -53 -19 -66 5 -6 11 -17 20 -25 20 -8 0 -15 7
-15 15 0 22 60 19 89 -5z m-3387 -122 c-5 -7 -13 -28 -17 -45 -7 -34 -18 -42
-31 -22 -4 7 1 16 10 21 21 12 21 45 -1 51 -10 3 -3 5 16 6 25 1 31 -2 23 -11z
m2975 -101 c21 -12 21 -13 5 -35 -15 -19 -28 -23 -85 -26 -37 -1 -67 0 -67 3
2 23 77 71 110 70 8 0 25 -5 37 -12z m1278 -17 c3 -5 2 -10 -4 -10 -5 0 -13 5
-16 10 -3 6 -2 10 4 10 5 0 13 -4 16 -10z m-72 -17 c-7 -2 -19 -2 -25 0 -7 3
-2 5 12 5 14 0 19 -2 13 -5z m-4233 -33 c0 -5 -5 -10 -11 -10 -5 0 -7 5 -4 10
3 6 8 10 11 10 2 0 4 -4 4 -10z m3080 -123 c8 -7 20 -22 27 -34 19 -33 -6 -45
-95 -48 -42 -2 -77 -3 -77 -4 0 -1 -30 -3 -68 -4 -37 -2 -72 -8 -79 -15 -7 -7
-43 -12 -92 -12 -43 0 -76 -3 -72 -7 4 -5 11 -8 14 -8 32 -3 52 -19 52 -43 0
-21 -5 -28 -22 -29 -83 -8 -83 -8 -93 14 -7 16 -15 21 -27 17 -12 -3 -18 0
-18 10 0 9 -4 16 -10 16 -21 0 -9 19 24 38 21 12 33 27 33 38 -4 43 112 59
221 31 47 -13 61 -12 125 3 40 10 86 25 102 34 35 19 36 19 55 3z m-2205 -367
c3 -5 1 -10 -4 -10 -6 0 -11 5 -11 11 0 6 -9 9 -19 6 -13 -3 -21 1 -24 14 -5
17 -3 17 23 4 16 -8 32 -19 35 -25z m47 8 c-7 -7 -12 -8 -12 -2 0 14 12 26 19
19 2 -3 -1 -11 -7 -17z m-72 -28 c0 -5 -7 -10 -16 -10 -8 0 -12 5 -9 10 3 6
10 10 16 10 5 0 9 -4 9 -10z m120 -36 c0 -21 -17 -17 -23 5 -3 14 -1 18 9 14
8 -3 14 -11 14 -19z m2890 -41 c0 -35 3 -44 10 -33 8 13 10 12 10 -4 0 -21 16
-77 33 -113 6 -13 8 -26 4 -29 -9 -9 -27 5 -27 22 0 8 -6 14 -12 14 -21 1 -63
79 -64 118 0 21 -4 45 -8 55 -7 14 -3 17 23 17 30 0 31 -1 31 -47z m933 40
c-7 -2 -19 -2 -25 0 -7 3 -2 5 12 5 14 0 19 -2 13 -5z m-3703 -95 c0 -13 8
-18 30 -18 26 0 31 -5 37 -31 3 -19 14 -34 24 -36 16 -5 16 -7 4 -19 -8 -8
-12 -21 -9 -29 4 -9 0 -15 -9 -15 -8 0 -18 11 -21 25 -4 14 -13 25 -21 25 -8
0 -15 5 -15 11 0 6 -7 9 -15 5 -8 -3 -15 -1 -15 4 0 5 -9 12 -20 15 -20 6 -26
37 -14 68 8 22 44 17 44 -5z m-331 -145 c-26 -33 -40 -45 -45 -40 -7 7 37 57
49 57 5 0 3 -8 -4 -17z m3451 -28 c0 -8 -4 -15 -10 -15 -5 0 -7 7 -4 15 4 8 8
15 10 15 2 0 4 -7 4 -15z m-3273 -241 c33 -9 18 -24 -23 -24 -24 0 -34 5 -34
15 0 16 20 19 57 9z m3623 -234 c0 -5 -4 -10 -10 -10 -5 0 -10 5 -10 10 0 6 5
10 10 10 6 0 10 -4 10 -10z m-2130 -750 c0 -5 -5 -10 -11 -10 -5 0 -7 5 -4 10
3 6 8 10 11 10 2 0 4 -4 4 -10z m-1145 -1160 c3 -5 -1 -10 -9 -10 -9 0 -16 5
-16 10 0 6 4 10 9 10 6 0 13 -4 16 -10z m45 -10 c0 -5 -4 -10 -10 -10 -5 0
-10 5 -10 10 0 6 5 10 10 10 6 0 10 -4 10 -10z m-690 -470 c0 -5 -5 -10 -11
-10 -5 0 -7 5 -4 10 3 6 8 10 11 10 2 0 4 -4 4 -10z m-9 -53 c-10 -9 -11 -8
-5 6 3 10 9 15 12 12 3 -3 0 -11 -7 -18z m259 -197 c0 -5 -4 -10 -10 -10 -5 0
-10 5 -10 10 0 6 5 10 10 10 6 0 10 -4 10 -10z m90 -180 c0 -5 -2 -10 -4 -10
-3 0 -8 5 -11 10 -3 6 -1 10 4 10 6 0 11 -4 11 -10z m35 -9 c-3 -11 -1 -22 5
-26 5 -3 10 -11 10 -17 0 -6 -8 -3 -19 8 -13 14 -16 24 -9 37 12 23 21 22 13
-2z m2969 -203 c44 -96 -28 -212 -92 -150 -11 9 -29 25 -40 34 -15 12 -22 29
-22 50 0 75 21 96 97 97 38 1 44 -2 57 -31z m-2599 -158 c3 -5 1 -10 -4 -10
-6 0 -11 5 -11 10 0 6 2 10 4 10 3 0 8 -4 11 -10z m56 -97 c13 -16 12 -17 -3
-4 -17 13 -22 21 -14 21 2 0 10 -8 17 -17z m132 -47 c4 -10 1 -13 -8 -9 -8 3
-12 9 -9 14 7 12 11 11 17 -5z m962 4 c3 -5 1 -10 -4 -10 -6 0 -11 5 -11 10 0
6 2 10 4 10 3 0 8 -4 11 -10z m-1025 -20 c0 -5 -5 -10 -11 -10 -5 0 -7 5 -4
10 3 6 8 10 11 10 2 0 4 -4 4 -10z m647 -42 c14 -15 12 -17 -26 -16 -23 0 -41
4 -41 9 0 5 -11 11 -25 15 -14 3 -25 11 -25 16 0 6 7 7 15 4 9 -3 18 1 21 9 5
13 10 12 36 -3 16 -9 36 -25 45 -34z m973 37 c0 -8 -2 -15 -4 -15 -2 0 -6 7
-10 15 -3 8 -1 15 4 15 6 0 10 -7 10 -15z m804 2 c-8 -21 18 -44 66 -60 41
-14 45 -18 48 -50 3 -28 -1 -37 -17 -42 -12 -3 -21 -11 -21 -16 0 -5 -11 -9
-24 -9 -14 0 -32 -7 -41 -16 -15 -15 -17 -15 -34 0 -10 9 -25 16 -35 16 -10 0
-14 5 -11 11 4 6 -2 13 -13 16 -14 3 -19 10 -15 21 5 11 2 14 -10 9 -13 -5
-17 -1 -17 18 0 22 10 31 25 23 9 -5 34 37 35 58 0 28 8 34 41 34 19 0 27 -4
23 -13z m-2375 -6 c27 -17 -4 -32 -48 -22 -6 1 21 31 28 31 3 0 12 -4 20 -9z
m1413 -50 c19 -9 48 -27 66 -39 27 -20 30 -27 26 -58 -5 -43 -11 -54 -28 -54
-18 0 -63 43 -59 56 2 5 -10 17 -27 27 -16 10 -36 25 -45 33 -8 8 -27 17 -42
18 -33 4 -46 36 -14 36 11 0 22 4 26 9 6 11 43 0 97 -28z m1268 -2 c0 -5 11
-9 25 -9 14 0 25 -4 25 -10 0 -5 -4 -10 -10 -10 -5 0 -10 -7 -10 -15 0 -8 -4
-15 -10 -15 -5 0 -10 4 -10 10 0 5 -6 7 -13 4 -20 -7 -59 28 -52 47 6 17 55
15 55 -2z m-1610 7 c0 -3 -4 -8 -10 -11 -5 -3 -10 -1 -10 4 0 6 5 11 10 11 6
0 10 -2 10 -4z m-550 -27 c0 -18 -2 -19 -15 -9 -8 7 -15 16 -15 21 0 5 7 9 15
9 9 0 15 -9 15 -21z m1907 -341 c6 -7 13 -26 17 -41 6 -25 5 -27 -12 -18 -28
15 -45 39 -38 56 7 18 20 19 33 3z"></path>
<path d="M23311 21694 c0 -11 3 -14 6 -6 3 7 2 16 -1 19 -3 4 -6 -2 -5 -13z"></path>
<path d="M23136 21343 c-4 -4 -26 -6 -49 -5 -41 2 -42 2 -17 -12 14 -9 33 -15
42 -16 11 0 18 -10 20 -27 2 -16 8 -27 13 -25 6 2 9 13 7 24 -2 17 0 19 13 8
8 -7 12 -16 9 -21 -3 -5 7 -9 22 -9 22 0 25 3 16 12 -14 14 -16 48 -2 48 5 0
14 -9 20 -20 6 -11 15 -20 19 -20 15 0 0 40 -18 49 -25 13 -87 22 -95 14z"></path>
<path d="M20080 19899 c0 -5 5 -7 10 -4 6 3 10 8 10 11 0 2 -4 4 -10 4 -5 0
-10 -5 -10 -11z"></path>
<path d="M14233 22905 c0 -14 1 -25 4 -25 8 0 83 41 83 45 0 3 -20 5 -44 5
-40 0 -43 -2 -43 -25z"></path>
<path d="M14368 22903 c7 -3 16 -2 19 1 4 3 -2 6 -13 5 -11 0 -14 -3 -6 -6z"></path>
<path d="M14473 22901 c21 -3 38 -9 37 -13 0 -5 0 -12 0 -18 0 -5 -7 -10 -15
-10 -9 0 -12 -6 -9 -15 4 -8 9 -13 14 -10 9 6 60 -17 60 -27 0 -5 9 -8 20 -8
11 0 20 -3 20 -7 0 -8 54 -35 93 -47 16 -5 12 -12 -25 -52 -50 -53 -56 -64
-34 -64 9 0 24 -4 34 -10 16 -9 152 -72 162 -75 15 -5 51 -20 97 -41 28 -13
55 -24 60 -24 4 0 19 -9 33 -20 14 -11 32 -20 40 -20 8 0 24 -8 35 -16 20 -15
19 -16 -17 -50 -21 -19 -38 -39 -38 -44 0 -5 -8 -7 -17 -4 -15 5 -15 4 -3 -5
12 -8 11 -14 -13 -39 -15 -15 -27 -33 -27 -38 0 -20 -35 -42 -62 -39 -16 2
-28 -1 -28 -7 0 -5 10 -6 22 -2 l21 6 -21 -27 c-12 -15 -22 -33 -22 -40 0 -6
-11 -18 -25 -25 -14 -8 -28 -24 -31 -36 -9 -33 -94 -46 -94 -13 0 5 11 7 25 3
14 -3 25 -4 25 -2 0 2 -27 23 -60 47 -33 24 -60 47 -60 52 0 9 -58 39 -77 39
-8 0 -22 13 -31 30 -9 16 -21 29 -27 28 -5 -1 -18 2 -29 7 -10 4 -21 4 -25 -1
-3 -5 -19 -15 -34 -23 l-28 -15 53 -21 c30 -13 57 -19 63 -14 17 17 43 9 61
-18 9 -15 21 -32 26 -38 4 -5 17 -22 28 -37 11 -14 40 -36 65 -48 52 -25 56
-41 16 -67 -16 -10 -31 -22 -33 -28 -2 -5 -7 -8 -13 -6 -5 2 -25 4 -43 3 -17
0 -35 4 -38 9 -3 5 3 6 13 2 16 -6 16 -5 4 10 -7 9 -20 17 -27 17 -8 0 -14 5
-14 10 0 6 -9 10 -20 10 -10 0 -23 6 -27 13 -4 6 -18 18 -30 24 -22 12 -22 12
-16 -37 4 -34 2 -50 -6 -50 -7 0 -11 -22 -11 -60 0 -33 -4 -60 -10 -60 -5 0
-10 -20 -10 -44 0 -25 -4 -48 -10 -51 -5 -3 -10 -31 -10 -60 0 -53 1 -56 56
-107 32 -29 66 -63 77 -75 11 -13 27 -23 34 -23 8 0 16 -6 19 -14 3 -7 24 -23
47 -34 43 -22 64 -24 372 -37 55 -2 107 -6 115 -9 18 -7 87 47 101 78 13 30
32 59 47 71 13 10 33 42 50 80 6 11 19 28 30 38 11 11 18 25 15 33 -3 8 1 14
11 14 9 0 30 13 48 30 25 22 29 29 16 30 -10 0 -18 4 -18 9 0 5 -9 11 -20 14
-11 3 -23 13 -27 24 -3 10 -11 21 -15 24 -18 12 5 59 38 80 32 20 34 22 17 34
-27 20 -4 39 36 30 26 -6 30 -9 20 -21 -16 -20 26 -53 71 -55 124 -6 158 24
92 84 -13 12 -18 26 -14 42 4 22 10 25 46 26 22 1 33 3 24 6 -13 3 -18 15 -18
43 0 21 -4 42 -10 45 -5 3 -10 20 -10 37 0 17 -5 48 -12 70 -9 31 -9 44 0 59
10 15 9 19 -1 19 -15 0 -117 101 -117 116 0 5 -27 36 -59 68 -33 32 -57 64
-55 71 3 7 -6 15 -22 19 -16 4 -34 16 -42 27 -7 10 -19 19 -27 19 -7 0 -15 3
-17 8 -1 4 -28 20 -58 36 -30 16 -69 40 -86 53 -17 12 -33 21 -36 18 -3 -3
-13 4 -23 15 -10 11 -24 20 -32 20 -7 0 -13 5 -13 11 0 5 -5 7 -11 3 -6 -3
-14 -3 -18 2 -12 18 -61 44 -81 44 -11 0 -20 5 -20 10 0 6 -41 10 -103 10 -57
0 -107 4 -112 9 -6 5 -75 11 -155 13 -80 3 -128 2 -107 -1z m967 -763 c24 -8
43 -22 50 -37 6 -13 9 -25 8 -26 -2 -1 -27 -13 -55 -27 l-53 -26 -1 26 c-1 15
-3 44 -4 65 -2 41 -1 42 55 25z m160 -137 c0 -27 -31 -36 -48 -14 -11 16 -10
19 10 25 36 10 38 9 38 -11z m-50 -32 c0 -14 -27 -10 -33 5 -4 10 0 12 14 9
10 -3 19 -9 19 -14z m-927 -63 c-10 -13 -20 -20 -23 -16 -3 4 -12 10 -20 14
-8 3 -5 4 8 2 14 -3 22 1 22 10 0 8 7 14 15 14 14 0 13 -3 -2 -24z m-36 -48
c-3 -8 -6 -5 -6 6 -1 11 2 17 5 13 3 -3 4 -12 1 -19z m-17 2 c0 -5 -4 -10 -10
-10 -5 0 -10 5 -10 10 0 6 5 10 10 10 6 0 10 -4 10 -10z"></path>
<path d="M14130 22892 c-23 -4 -24 -5 -5 -13 17 -6 17 -8 3 -8 -14 -1 -16 -7
-11 -33 6 -33 20 -58 32 -58 3 0 14 7 25 15 17 13 17 16 2 47 -11 20 -13 34
-6 36 5 2 10 8 10 13 0 9 -8 10 -50 1z"></path>
<path d="M14450 22860 c0 -5 5 -10 10 -10 6 0 10 5 10 10 0 6 -4 10 -10 10 -5
0 -10 -4 -10 -10z"></path>
<path d="M17690 22783 c-7 -21 -18 -45 -24 -53 -7 -8 -18 -28 -26 -45 -8 -16
-20 -37 -28 -46 -22 -28 -52 -91 -46 -100 3 -5 -3 -6 -12 -2 -12 4 -15 3 -10
-5 4 -7 16 -12 26 -12 13 0 17 -5 14 -15 -4 -8 -12 -15 -20 -15 -19 0 -18 -16
1 -24 18 -7 66 10 77 27 5 8 8 3 8 -10 0 -13 5 -23 10 -23 22 0 140 -75 136
-86 -3 -7 15 -14 47 -18 78 -9 93 -8 117 12 19 15 20 20 9 47 -15 36 -16 41
-18 60 0 8 -10 23 -21 32 -11 10 -20 22 -20 28 0 17 -55 66 -65 58 -4 -5 -5
-2 0 6 4 7 3 16 -4 20 -6 4 -15 22 -21 39 -5 20 -5 30 1 27 21 -14 6 14 -24
43 -33 32 -54 42 -41 20 4 -7 -2 -5 -14 5 -11 11 -18 24 -16 31 3 7 -2 18 -10
25 -12 10 -16 6 -26 -26z m-70 -284 c0 -5 -4 -9 -10 -9 -5 0 -10 7 -10 16 0 8
5 12 10 9 6 -3 10 -10 10 -16z"></path>
<path d="M13875 22787 c-4 -10 -5 -21 -1 -24 10 -10 18 4 13 24 -4 17 -4 17
-12 0z"></path>
<path d="M14075 22720 c-3 -5 -4 -10 -1 -10 8 0 -34 -94 -46 -101 -5 -4 -8
-14 -6 -24 2 -10 18 10 43 56 22 41 42 77 43 81 5 12 -26 10 -33 -2z"></path>
<path d="M14535 22700 c-4 -6 0 -19 9 -29 9 -10 16 -23 16 -29 0 -16 15 -15
27 1 15 19 0 62 -24 65 -12 2 -24 -2 -28 -8z"></path>
<path d="M14036 22681 c-4 -7 -5 -15 -2 -18 9 -9 19 4 14 18 -4 11 -6 11 -12
0z"></path>
<path d="M14367 22634 c-4 -4 9 -23 29 -42 31 -30 37 -33 50 -20 13 13 13 17
-3 36 -19 22 -64 38 -76 26z"></path>
<path d="M13521 22561 c-23 -17 -23 -22 -17 -90 6 -62 4 -80 -15 -126 -26 -64
-17 -85 36 -85 l33 0 -5 48 c-3 32 -2 43 5 33 6 -8 7 -21 4 -30 -5 -14 -4 -14
10 -1 9 8 13 19 8 23 -9 11 -1 47 11 47 5 0 9 7 9 15 0 8 -4 15 -10 15 -5 0
-1 9 10 20 11 11 26 17 35 14 8 -4 15 -1 15 5 0 6 9 11 20 11 11 0 20 4 20 9
0 10 -61 41 -80 41 -23 0 -69 40 -63 55 7 19 3 19 -26 -4z"></path>
<path d="M14040 22495 c-11 -13 -15 -13 -22 -3 -6 10 -16 5 -38 -20 -17 -18
-28 -37 -25 -42 4 -6 1 -10 -4 -10 -6 0 -11 -8 -11 -19 0 -10 -7 -24 -16 -32
-8 -7 -13 -21 -11 -31 3 -10 1 -18 -4 -18 -5 0 -9 -13 -9 -30 0 -32 -38 -78
-61 -73 -8 2 -4 -2 9 -9 l23 -12 -23 -12 c-21 -11 -18 -12 28 -10 32 1 58 9
68 19 9 9 24 13 33 10 11 -4 14 -2 11 8 -3 8 -14 12 -24 11 -14 -3 -16 -1 -8
8 9 9 17 9 32 1 11 -6 25 -11 31 -11 13 0 11 140 -1 157 -11 14 0 83 13 83 5
0 9 7 9 15 0 9 10 20 23 25 15 6 17 9 6 9 -9 1 -22 -6 -29 -14z"></path>
<path d="M14684 22496 c-11 -29 0 -61 21 -61 11 0 20 7 20 15 0 8 -5 14 -11
13 -7 -1 -9 8 -6 22 5 27 -15 35 -24 11z"></path>
<path d="M14860 22465 c7 -8 19 -15 27 -15 13 0 13 3 3 15 -7 8 -19 15 -27 15
-13 0 -13 -3 -3 -15z"></path>
<path d="M17510 22470 c0 -5 5 -10 10 -10 6 0 10 5 10 10 0 6 -4 10 -10 10 -5
0 -10 -4 -10 -10z"></path>
<path d="M17972 22430 c16 -30 37 -54 43 -48 3 2 -9 20 -26 39 -22 25 -26 27
-17 9z"></path>
<path d="M17450 22375 c-17 -21 -3 -35 37 -38 26 -2 30 -5 22 -19 -7 -13 -22
-18 -57 -18 -53 -1 -63 -7 -112 -70 -19 -25 -38 -46 -42 -48 -5 -2 -8 -8 -8
-14 0 -5 -7 -16 -15 -24 -21 -21 -8 -44 25 -44 16 0 32 -5 36 -11 5 -8 -6 -10
-34 -7 -22 2 -38 0 -36 -4 3 -5 0 -8 -7 -8 -30 0 -38 -35 -39 -172 0 -134 1
-138 21 -138 15 0 19 -5 15 -15 -3 -9 -1 -25 4 -35 6 -11 14 -28 19 -39 6 -12
6 -22 -2 -30 -8 -8 -8 -11 1 -11 7 0 12 -7 12 -15 0 -8 5 -15 11 -15 6 0 9 -6
6 -13 -3 -8 3 -20 14 -28 10 -7 19 -19 19 -26 0 -7 5 -13 10 -13 6 0 10 -8 10
-18 0 -10 16 -32 35 -48 19 -16 35 -35 35 -41 0 -7 7 -13 15 -13 8 0 15 -6 15
-14 0 -7 22 -37 50 -67 27 -29 52 -57 55 -63 11 -23 31 -51 53 -73 12 -13 22
-30 22 -37 0 -7 16 -43 35 -80 19 -37 35 -78 35 -92 0 -13 5 -24 10 -24 6 0
10 7 10 15 0 8 3 15 8 15 8 0 42 73 42 90 0 6 4 10 9 10 12 0 20 49 8 53 -5 1
4 19 22 39 17 20 31 41 31 47 0 6 4 11 8 11 5 0 33 35 62 78 30 42 59 82 65
87 7 6 27 31 45 58 18 26 39 47 47 47 7 0 13 6 13 14 0 8 6 21 13 28 7 7 41
48 76 91 35 42 70 77 77 77 8 0 14 7 14 16 0 9 11 25 25 36 14 11 25 25 25 32
0 14 37 51 60 59 9 3 10 6 3 6 -9 1 -13 21 -13 65 0 58 -2 65 -22 72 -13 3
-44 26 -70 50 -28 26 -53 42 -61 38 -10 -3 -14 1 -14 11 1 10 -7 22 -18 29
-11 6 -31 19 -44 29 -13 9 -33 17 -45 18 -11 0 -16 3 -9 5 8 4 6 10 -6 22 -44
43 -44 43 -135 22 -48 -12 -96 -18 -107 -15 -11 4 -19 2 -19 -5 0 -13 -36 -28
-107 -45 -52 -13 -53 -13 -53 9 0 12 5 27 12 34 9 9 3 18 -23 41 -18 16 -30
33 -26 38 4 4 -9 12 -30 19 l-38 11 28 8 c55 15 24 56 -42 53 -23 -1 -47 4
-53 10 -16 16 -23 15 -38 -3z m585 -205 c-3 -5 -11 -10 -16 -10 -5 0 -22 -9
-37 -20 -21 -15 -34 -18 -57 -11 l-30 8 40 20 c42 22 111 31 100 13z m115
-126 c0 -8 -4 -12 -10 -9 -5 3 -10 10 -10 16 0 5 5 9 10 9 6 0 10 -7 10 -16z
m-160 -28 c0 -19 -47 -56 -71 -56 -11 0 -19 3 -19 6 0 11 23 49 34 56 19 13
56 9 56 -6z m-595 -216 c4 -6 12 -10 18 -9 17 3 55 -15 107 -50 25 -17 54 -31
65 -31 20 -1 20 -1 1 -15 -17 -13 -17 -15 -4 -15 24 0 18 -35 -12 -71 l-25
-31 -40 19 c-22 10 -42 21 -45 24 -15 17 -87 59 -102 59 -10 0 -18 5 -18 10 0
6 -6 10 -14 10 -19 0 -27 24 -19 60 4 21 11 30 24 30 11 0 19 5 19 10 0 13 37
13 45 0z"></path>
<path d="M17425 22330 c3 -5 8 -10 11 -10 2 0 4 5 4 10 0 6 -5 10 -11 10 -5 0
-7 -4 -4 -10z"></path>
<path d="M14248 22277 c-21 -6 -38 -16 -38 -24 0 -17 26 -17 37 0 4 7 26 12
48 12 22 0 42 5 45 10 7 14 -47 15 -92 2z"></path>
<path d="M13430 22250 c-12 -11 -27 -17 -33 -13 -5 3 -7 1 -4 -4 9 -14 -18
-24 -31 -11 -14 14 -92 -9 -92 -28 0 -8 -7 -17 -15 -20 -26 -10 -16 -25 11
-18 19 5 25 4 20 -5 -12 -19 3 -32 24 -18 16 9 24 9 41 -1 37 -23 80 2 111 67
20 41 24 57 15 63 -17 11 -22 10 -47 -12z"></path>
<path d="M13776 22181 c-10 -11 -31 -23 -47 -26 -16 -4 -29 -11 -29 -16 0 -6
8 -8 18 -5 9 2 37 10 61 17 34 10 40 14 25 20 -16 7 -17 8 -2 8 24 1 33 21 10
21 -10 0 -27 -9 -36 -19z"></path>
<path d="M13190 22169 c0 -5 5 -7 10 -4 6 3 10 8 10 11 0 2 -4 4 -10 4 -5 0
-10 -5 -10 -11z"></path>
<path d="M13910 22136 c0 -9 5 -16 10 -16 6 0 10 4 10 9 0 6 -4 13 -10 16 -5
3 -10 -1 -10 -9z"></path>
<path d="M14840 22120 c-9 -6 -10 -10 -3 -10 6 0 15 5 18 10 8 12 4 12 -15 0z"></path>
<path d="M13329 22071 c5 -8 4 -25 -2 -38 -9 -21 -6 -28 28 -61 22 -20 30 -26
20 -12 -11 14 -26 29 -32 33 -7 4 -13 15 -13 23 0 8 5 12 10 9 6 -3 10 -2 10
4 0 6 7 8 15 5 8 -4 15 -1 15 5 0 6 -4 11 -10 11 -14 0 -12 28 3 33 6 2 -2 4
-20 4 -26 0 -30 -3 -24 -16z"></path>
<path d="M17200 22050 c0 -5 5 -10 10 -10 6 0 10 5 10 10 0 6 -4 10 -10 10 -5
0 -10 -4 -10 -10z"></path>
<path d="M13105 21994 c-8 -20 -20 -54 -26 -77 -9 -35 -8 -43 6 -53 14 -10 16
-31 12 -160 -2 -82 -9 -169 -16 -194 -6 -25 -14 -64 -18 -87 -3 -24 -9 -43
-13 -43 -4 0 -10 -27 -14 -60 -4 -36 -12 -60 -19 -60 -8 0 -7 -3 2 -9 7 -5 11
-13 7 -19 -6 -10 12 -72 23 -82 11 -9 61 -115 61 -128 0 -11 29 -74 75 -162 8
-15 9 -31 4 -40 -4 -8 -25 -55 -44 -105 -20 -49 -41 -98 -46 -107 -5 -10 -9
-24 -9 -32 0 -8 -5 -18 -11 -22 -8 -4 -9 4 -5 27 5 30 5 31 -4 10 -6 -14 -9
-30 -6 -36 2 -7 1 -27 -4 -46 -6 -25 -8 -28 -9 -11 -1 13 -5 20 -11 17 -6 -4
-10 -58 -10 -130 0 -68 -4 -126 -9 -129 -4 -3 -7 -17 -6 -30 2 -14 -1 -43 -6
-66 -8 -34 -16 -82 -18 -112 -1 -12 -89 -10 -96 2 -3 6 -26 10 -51 10 -24 0
-44 4 -44 9 0 5 -41 12 -90 16 -50 4 -93 11 -96 16 -7 12 -108 11 -120 -1 -6
-6 -175 -10 -449 -11 -242 -1 -449 -5 -460 -9 -11 -5 -14 -9 -7 -9 9 -1 10 -6
3 -19 -7 -13 -2 -24 20 -47 25 -24 29 -34 23 -60 -3 -16 -7 -30 -8 -30 0 0
-24 -12 -53 -27 -53 -27 -62 -26 -76 13 -3 9 -32 31 -64 49 -68 38 -73 44 -73
88 l0 32 108 2 107 1 -115 7 c-63 4 -119 8 -125 11 -5 2 -20 -2 -31 -9 -12 -6
-23 -9 -26 -7 -2 2 -159 7 -349 11 -189 3 -362 7 -384 9 -48 3 -63 -7 -60 -40
2 -14 -1 -27 -6 -31 -5 -3 -9 -23 -9 -44 0 -21 -4 -50 -10 -64 -6 -17 -6 -27
1 -32 6 -3 8 -12 5 -20 -5 -12 4 -269 19 -569 2 -55 5 -119 5 -143 l0 -42 266
0 c147 1 269 -2 272 -5 4 -4 -1 -20 -11 -37 -16 -28 -16 -32 -2 -48 8 -9 15
-24 15 -32 0 -9 7 -21 15 -28 8 -7 15 -18 15 -24 0 -6 9 -17 20 -24 11 -7 20
-18 20 -26 0 -7 7 -19 15 -26 17 -14 20 -56 5 -65 -5 -3 -10 -19 -10 -35 0
-16 -4 -32 -10 -35 -5 -3 -8 -19 -6 -35 2 -17 -1 -30 -5 -30 -5 0 -9 -11 -9
-24 0 -14 -4 -28 -10 -31 -5 -3 -10 -19 -10 -36 0 -16 -5 -29 -11 -29 -6 0
-10 -12 -9 -27 2 -35 -9 -73 -22 -73 -6 0 -6 -5 1 -14 8 -9 12 -83 12 -227 0
-118 4 -218 8 -224 4 -5 3 -80 -2 -165 -7 -114 -6 -159 2 -173 13 -20 14 -185
1 -202 -4 -5 -7 -17 -7 -25 -1 -46 -15 -170 -24 -203 -6 -23 -7 -43 -1 -50 4
-7 9 -21 10 -32 1 -38 11 -77 22 -90 8 -10 7 -14 -2 -17 -19 -7 -20 -436 -1
-536 15 -85 18 -403 4 -417 -11 -12 -15 -474 -8 -935 7 -432 5 -400 21 -394 7
3 27 -7 45 -22 29 -24 36 -26 89 -19 31 3 75 16 97 27 44 22 67 23 310 9 118
-7 156 -6 176 5 18 9 42 11 81 5 50 -7 57 -5 69 13 15 25 19 110 6 128 -6 9
-7 5 -4 -10 5 -23 5 -23 -13 -7 -11 10 -20 12 -24 7 -3 -6 0 -13 6 -15 9 -4
10 -6 1 -6 -16 -1 -26 17 -30 51 -3 30 -11 43 -53 85 -21 21 -32 24 -65 20
-22 -3 -41 -11 -43 -16 -8 -25 -50 -10 -80 28 -18 22 -32 44 -32 49 0 5 -12 7
-26 4 -19 -3 -25 -1 -20 7 4 6 14 11 22 11 16 0 19 16 4 25 -5 3 -17 21 -26
40 -9 19 -22 35 -30 35 -7 0 -29 9 -49 20 -20 11 -40 20 -46 20 -6 0 -26 7
-45 16 -18 9 -39 14 -46 12 -7 -3 -24 6 -38 19 -14 13 -31 23 -38 23 -7 0 -10
5 -7 11 5 7 33 8 84 4 43 -4 92 -3 112 3 24 6 56 6 95 -1 32 -5 73 -11 89 -11
23 -1 33 -8 43 -30 6 -15 12 -37 12 -47 0 -11 5 -28 10 -39 6 -11 15 -29 20
-40 6 -11 10 -31 10 -45 0 -14 5 -25 10 -25 6 0 10 -9 10 -19 0 -10 6 -21 14
-24 18 -7 83 10 91 23 11 19 43 10 49 -12 12 -45 7 -88 -10 -88 -14 0 -14 -3
-4 -15 7 -8 18 -15 26 -15 7 0 18 -8 23 -17 9 -15 12 -16 20 -4 5 7 13 11 19
7 6 -3 16 16 24 47 10 39 12 126 10 357 -1 168 -4 321 -6 340 -6 57 -7 852 -1
858 3 3 5 27 5 54 0 32 4 48 13 48 9 0 9 2 0 8 -7 4 -13 36 -15 72 -2 49 -6
64 -17 62 -10 -2 -12 3 -6 20 4 13 10 139 12 281 3 141 8 257 12 257 3 0 5 61
3 136 -2 77 1 141 7 147 18 22 14 91 -8 140 -11 27 -21 52 -21 57 0 5 -5 10
-11 12 -19 6 -20 99 -4 219 8 63 20 161 25 219 6 58 13 112 16 120 8 22 6 155
-3 234 -9 70 2 213 17 230 5 5 3 18 -5 30 -15 24 -18 44 -16 144 1 55 5 76 19
90 10 10 16 24 14 30 -9 27 29 23 64 -7 21 -16 41 -28 46 -25 4 3 5 -2 2 -10
-4 -11 0 -16 12 -16 9 0 15 -3 11 -6 -11 -11 57 -62 74 -55 14 5 61 39 92 66
33 29 67 43 88 39 17 -4 20 -3 11 4 -11 7 -2 18 35 48 26 22 50 42 51 47 2 4
9 7 16 7 7 0 27 16 46 35 19 19 39 35 46 35 7 0 15 6 17 13 3 6 6 0 6 -15 1
-15 5 -29 10 -32 4 -3 6 -17 3 -31 -2 -15 0 -25 7 -25 6 0 11 -13 11 -28 0
-16 3 -32 8 -36 4 -4 7 -13 7 -19 0 -8 31 -13 97 -15 96 -3 97 -3 102 -30 3
-15 5 -131 5 -257 0 -127 0 -235 1 -240 2 -6 2 -17 1 -25 -1 -13 -2 -13 -11 0
-5 8 -10 10 -10 4 0 -15 20 -30 50 -37 14 -3 54 -13 90 -22 36 -9 81 -20 100
-24 38 -9 155 -39 183 -47 20 -6 24 25 5 44 -9 9 -9 12 3 12 10 1 10 3 -3 11
-10 5 -18 19 -18 31 0 14 -5 18 -15 14 -11 -4 -19 3 -25 20 -13 33 -13 32 7
30 9 0 30 -15 45 -32 25 -28 28 -40 28 -97 0 -36 5 -69 10 -72 6 -3 10 -16 10
-28 1 -25 22 -57 39 -57 6 0 11 -4 11 -10 0 -5 7 -10 15 -10 8 0 15 -3 15 -8
0 -18 107 -77 145 -79 22 -2 58 -10 80 -19 22 -9 64 -18 93 -19 30 -2 56 -6
58 -8 7 -7 7 -58 0 -99 -3 -21 -2 -38 3 -38 5 0 13 29 16 65 4 36 11 65 15 65
9 0 30 70 30 102 0 14 3 27 6 30 3 4 6 52 6 108 0 56 -3 104 -6 108 -3 3 -6
54 -6 114 0 87 -3 110 -15 114 -19 8 -19 19 -2 36 8 7 17 30 21 51 4 22 13 37
21 37 8 0 15 4 15 10 0 5 -7 7 -15 4 -13 -5 -15 11 -15 115 0 120 0 121 25
127 14 3 32 4 40 1 8 -4 17 -2 20 3 4 6 -3 10 -14 10 -12 0 -21 5 -21 10 0 6
9 10 21 10 11 0 18 4 14 9 -13 22 49 33 65 11 3 -3 21 -14 42 -23 32 -15 79
-17 402 -17 350 0 368 -1 410 -21 25 -11 51 -22 59 -23 46 -6 60 -67 47 -210
-7 -68 -12 -88 -33 -109 l-24 -27 -7 32 c-7 36 -1 47 16 30 20 -20 23 -14 25
38 l2 50 -35 0 c-28 0 -35 -3 -30 -15 3 -8 6 -53 7 -99 1 -78 -1 -88 -25 -116
-14 -17 -26 -41 -26 -52 0 -25 18 -94 32 -125 6 -12 8 -33 4 -47 -4 -15 -2
-26 4 -26 13 0 13 -77 0 -85 -6 -4 -8 -10 -5 -15 3 -5 -5 -30 -19 -55 -14 -25
-26 -47 -27 -50 -6 -30 -13 -45 -19 -45 -4 0 -11 -16 -14 -35 -4 -19 -12 -35
-18 -35 -7 0 -7 -4 0 -12 5 -7 13 -107 17 -223 5 -137 11 -213 19 -217 8 -6 8
-10 0 -15 -15 -11 -27 -80 -15 -87 5 -3 7 -15 4 -25 -6 -25 15 -38 24 -14 4
10 18 33 32 51 20 28 22 35 10 43 -8 5 -9 9 -3 9 7 0 15 28 19 68 4 37 12 71
19 75 8 6 8 10 -1 14 -19 7 -18 214 1 207 8 -3 16 3 19 16 3 11 6 24 7 28 2 4
15 25 30 47 32 47 62 107 56 112 -2 2 -18 -19 -35 -46 -34 -57 -45 -64 -35
-25 5 20 4 25 -6 19 -9 -6 -10 -3 -1 13 7 13 17 19 26 16 9 -4 15 0 15 8 0 8
15 21 33 29 17 8 36 24 42 37 5 12 15 22 22 22 6 0 13 3 15 8 5 11 68 42 87
42 11 0 25 -15 36 -41 10 -22 26 -46 35 -52 16 -12 33 -41 35 -62 4 -30 18
-55 33 -55 15 -1 15 -2 -1 -11 -9 -6 -26 -7 -37 -4 -16 5 -20 2 -20 -17 -1
-101 -14 -275 -20 -283 -10 -12 -15 -143 -6 -165 3 -8 10 -35 16 -60 6 -25 14
-55 17 -67 3 -13 9 -23 14 -23 6 0 9 -16 7 -35 -2 -29 5 -43 37 -77 22 -23 44
-46 50 -50 5 -4 6 -10 2 -14 -4 -4 -1 -14 5 -22 7 -8 17 -24 23 -36 6 -12 22
-22 37 -24 24 -3 28 1 34 35 4 21 11 44 17 51 5 6 5 12 0 12 -4 0 -7 52 -6
116 2 76 -1 122 -8 130 -9 11 -8 18 0 28 6 8 11 18 10 22 -3 10 16 60 32 87 6
11 8 21 6 23 -3 3 7 17 22 33 45 48 61 70 56 83 -7 18 11 42 24 33 9 -5 9 -10
0 -21 -6 -8 -9 -14 -6 -14 3 0 32 27 64 61 61 64 78 109 40 109 -16 0 -17 -2
-7 -16 11 -13 10 -16 -7 -20 -14 -4 -19 -12 -16 -27 3 -16 -4 -26 -27 -39 -16
-9 -30 -13 -30 -8 0 5 3 11 8 13 8 6 7 115 -2 124 -3 3 -6 17 -6 30 0 13 -4
23 -9 23 -11 0 -20 38 -23 90 -1 19 -6 40 -11 47 -5 7 -5 18 -1 25 9 15 9 11
18 93 9 74 24 125 38 125 11 0 5 262 -7 292 -4 10 -5 42 -3 73 3 61 3 62 -60
40 -53 -19 -63 -13 -55 26 4 22 0 38 -15 59 -17 23 -19 31 -8 45 9 13 20 15
49 10 21 -4 40 -11 43 -16 2 -5 27 -11 54 -15 28 -4 50 -10 50 -15 0 -5 9 -9
21 -9 17 0 12 8 -28 44 -35 33 -51 41 -61 34 -18 -15 -82 20 -84 47 -2 33 -4
39 -15 60 -5 11 -13 40 -16 65 -6 42 -4 46 24 63 17 9 39 17 49 17 16 0 18 -6
13 -50 l-5 -50 36 0 c41 0 57 22 38 49 -33 44 -36 61 -16 76 20 15 85 21 82 8
-3 -14 14 -43 25 -43 7 0 7 4 -1 12 -7 7 -12 16 -12 20 0 10 34 11 43 2 4 -4
28 -7 54 -7 44 0 48 2 48 24 0 13 3 29 8 36 4 6 3 14 -3 18 -5 3 -10 17 -10
31 0 17 8 27 26 34 35 14 36 13 29 -10 -4 -11 -2 -20 4 -20 6 0 11 -7 11 -15
0 -18 -12 -19 -28 -3 -19 19 -27 0 -9 -20 10 -10 17 -25 17 -33 1 -8 16 -32
35 -54 l34 -40 132 3 c73 2 137 5 141 8 11 7 10 102 -2 109 -6 4 -8 70 -4 180
5 135 3 181 -7 205 -8 16 -17 30 -21 30 -5 0 -8 9 -8 21 0 23 -29 90 -43 100
-5 3 -7 12 -6 20 3 17 -9 46 -33 81 -10 14 -18 32 -18 40 0 9 -20 19 -51 27
-38 10 -53 19 -60 38 l-9 25 -228 -1 c-125 0 -258 -1 -297 -1 -315 0 -771 -12
-773 -20 -2 -6 -23 -10 -47 -10 -24 0 -47 -4 -50 -10 -4 -6 -70 -10 -166 -10
-99 0 -159 4 -159 10 0 6 -40 10 -100 10 -55 0 -100 4 -100 9 0 5 -84 12 -187
16 -239 9 -223 -6 -226 215 -2 112 1 160 9 160 7 0 9 24 6 75 -3 42 -1 75 5
75 5 0 8 29 8 66 -1 36 3 67 7 70 5 3 4 12 -2 19 -7 8 -9 58 -5 143 2 73 0
134 -5 137 -5 3 -9 105 -10 228 0 172 -4 225 -14 235 -11 11 -15 11 -21 1 -6
-8 -4 -10 6 -4 12 8 12 6 0 -8 -14 -18 -26 -23 -17 -8 4 5 1 11 -5 13 -6 2 4
19 22 37 22 22 30 35 22 38 -7 3 -13 11 -13 19 0 8 -4 14 -10 14 -5 0 -10 8
-11 18 0 15 -2 14 -9 -3 -5 -11 -23 -36 -40 -55 -25 -29 -30 -31 -25 -12 5 16
2 22 -10 22 -9 0 -13 5 -10 10 4 6 2 17 -4 24 -6 7 -8 21 -5 31 4 9 1 20 -6
25 -14 9 -6 42 15 64 13 12 7 22 -40 68 -40 39 -53 58 -49 73 4 14 3 16 -4 7
-8 -12 -13 -12 -33 0 -13 7 -28 19 -32 26 -5 7 -12 10 -18 7 -12 -8 -12 -65 0
-65 5 0 9 -14 9 -31 -1 -17 4 -34 10 -38 15 -9 3 -53 -12 -45 -6 3 -1 -3 12
-14 12 -11 22 -24 22 -28 0 -4 -5 -3 -12 4 -20 20 -27 13 -21 -23 4 -23 2 -35
-6 -35 -6 0 -11 5 -11 12 0 6 -3 8 -6 5 -13 -13 19 -38 40 -31 18 6 19 5 7
-10 -7 -9 -19 -16 -26 -16 -7 0 -15 -7 -19 -15 -3 -8 -13 -15 -21 -15 -9 0
-14 4 -11 9 3 4 -3 16 -13 25 -10 10 -17 25 -14 35 6 25 -14 38 -72 44 -32 3
-55 12 -65 24 -24 30 -55 11 -67 -40 -9 -36 -10 -24 -11 73 0 63 4 120 8 125
10 13 18 165 8 165 -4 0 -14 -16 -23 -36z m173 -358 c5 -3 6 -28 2 -55 -4 -32
-3 -52 4 -55 10 -3 0 -3 -64 3 -12 1 -12 4 3 15 12 10 14 15 6 18 -21 7 -17
46 5 54 21 6 21 7 -1 11 -13 2 -23 11 -23 18 0 10 7 12 30 5 16 -5 33 -11 38
-14z m-161 -112 c-3 -3 -12 -4 -19 -1 -8 3 -5 6 6 6 11 1 17 -2 13 -5z m490
-89 c-11 -23 -27 -34 -27 -18 0 6 30 43 36 43 1 0 -3 -11 -9 -25z m13 -392
c-6 -16 -16 -39 -23 -52 -9 -19 -9 -25 1 -28 28 -10 0 -18 -55 -17 -32 1 -60
-2 -63 -6 -3 -4 -38 -9 -78 -12 l-72 -4 32 18 c18 10 41 20 51 24 9 3 17 10
17 14 0 4 15 13 33 20 17 7 55 23 82 35 28 13 57 26 65 29 8 2 16 5 17 5 1 1
-2 -11 -7 -26z m-1930 -1062 c0 -12 -20 -25 -27 -18 -7 7 6 27 18 27 5 0 9 -4
9 -9z m3467 -598 c-8 -7 -37 9 -31 19 3 5 12 4 20 -3 8 -6 13 -14 11 -16z
m-51 5 c4 -6 3 -8 -3 -5 -6 4 -16 0 -23 -8 -10 -12 -10 -15 0 -15 8 0 11 -2 8
-5 -3 -3 -13 -3 -22 1 -16 6 -16 8 0 25 20 22 30 24 40 7z m914 -30 c27 -30
25 -40 -7 -36 -21 2 -27 8 -26 26 2 40 4 41 33 10z m-2270 -44 c0 -20 -44 -74
-61 -74 -11 0 -19 -7 -19 -16 0 -9 5 -12 11 -8 7 4 9 2 5 -7 -3 -8 -9 -22 -12
-31 -8 -24 -22 -23 -45 5 -25 30 -24 34 14 53 17 10 27 19 20 21 -6 2 -24 -4
-40 -13 -22 -14 -20 -10 11 20 35 35 69 53 104 55 6 1 12 -2 12 -5z m1635 -64
c3 -5 15 -10 26 -10 11 0 29 -5 41 -11 19 -10 19 -11 1 -24 -10 -7 -36 -11
-57 -9 -22 1 -55 -4 -74 -12 -31 -12 -33 -12 -28 2 3 9 6 24 6 35 0 29 70 53
85 29z m-3687 -30 c13 -16 18 -30 12 -30 -7 0 -8 -5 -3 -12 17 -27 30 -78 22
-84 -5 -3 -12 3 -16 13 -11 30 -55 83 -68 83 -16 0 -26 25 -19 45 10 25 49 17
72 -15z m1765 3 c-26 -10 -12 -18 35 -20 35 -2 51 -8 61 -23 7 -11 19 -20 26
-20 7 0 15 -14 19 -31 4 -23 0 -39 -19 -67 -14 -20 -25 -41 -25 -45 0 -10 -44
-46 -77 -64 -31 -16 -75 -2 -90 28 -12 22 -9 70 5 94 3 5 5 24 3 42 -2 22 2
35 13 39 12 5 13 9 3 25 -10 17 -9 23 7 35 11 8 27 14 35 13 11 0 12 -2 4 -6z
m184 -95 c-3 -8 -6 -5 -6 6 -1 11 2 17 5 13 3 -3 4 -12 1 -19z m-1470 -34 c-3
-3 -12 -4 -19 -1 -8 3 -5 6 6 6 11 1 17 -2 13 -5z m43 -14 c0 -5 -5 -10 -11
-10 -5 0 -7 5 -4 10 3 6 8 10 11 10 2 0 4 -4 4 -10z m-475 -21 c11 -17 -1 -21
-15 -4 -8 9 -8 15 -2 15 6 0 14 -5 17 -11z m488 -16 c3 -5 -1 -14 -9 -20 -14
-14 -30 0 -19 17 7 12 22 13 28 3z m1124 -75 c-3 -8 -6 -5 -6 6 -1 11 2 17 5
13 3 -3 4 -12 1 -19z m-382 -58 c8 -13 -5 -13 -25 0 -13 8 -13 10 2 10 9 0 20
-4 23 -10z m379 -25 c-4 -8 -8 -15 -10 -15 -2 0 -4 7 -4 15 0 8 4 15 10 15 5
0 7 -7 4 -15z m-277 -13 c15 -10 6 -49 -13 -56 -10 -4 -14 2 -14 18 0 19 -4
23 -20 19 -19 -5 -27 7 -13 20 9 9 45 9 60 -1z m-160 -114 c-3 -8 -6 -5 -6 6
-1 11 2 17 5 13 3 -3 4 -12 1 -19z m95 -30 c-7 -7 -12 -8 -12 -2 0 14 12 26
19 19 2 -3 -1 -11 -7 -17z m198 -68 c0 -5 -2 -10 -4 -10 -3 0 -8 5 -11 10 -3
6 -1 10 4 10 6 0 11 -4 11 -10z m32 -25 c7 -33 -1 -39 -24 -19 -14 13 -15 20
-7 31 17 19 26 16 31 -12z m-332 -5 c0 -5 -4 -10 -10 -10 -5 0 -10 5 -10 10 0
6 5 10 10 10 6 0 10 -4 10 -10z m-1614 -718 c6 -4 21 -28 34 -55 17 -34 21
-50 13 -58 -15 -15 -59 26 -66 61 -2 14 -8 33 -12 43 -8 18 10 23 31 9z m684
-2236 c0 -3 -4 -8 -10 -11 -5 -3 -10 -1 -10 4 0 6 5 11 10 11 6 0 10 -2 10 -4z
m-913 -243 c-4 -3 -2 -12 4 -20 14 -16 5 -17 -24 -1 -21 11 -21 11 -2 19 26
10 30 10 22 2z m83 -8 c7 -8 9 -15 4 -15 -5 0 3 -8 19 -18 15 -10 24 -21 21
-25 -4 -3 2 -14 12 -24 16 -17 16 -18 0 -21 -9 -2 -33 8 -52 23 -29 22 -34 32
-32 61 2 37 9 42 28 19z m707 -58 c3 -4 -18 -7 -48 -6 -41 1 -48 3 -29 9 28 8
67 7 77 -3z m-451 -368 c3 -5 -17 -9 -45 -9 -27 0 -52 4 -55 8 -3 5 17 9 45 9
27 0 52 -3 55 -8z m58 -10 c-7 -11 -34 -12 -34 -1 0 14 11 21 26 15 8 -3 11
-9 8 -14z"></path>
<path d="M13456 21978 c-18 -25 -5 -41 23 -30 14 6 14 7 -1 10 -25 5 -23 22 2
22 11 0 20 5 20 10 0 18 -29 10 -44 -12z"></path>
<path d="M13290 21906 c0 -2 7 -7 16 -10 8 -3 12 -2 9 4 -6 10 -25 14 -25 6z"></path>
<path d="M13141 21774 c0 -11 3 -14 6 -6 3 7 2 16 -1 19 -3 4 -6 -2 -5 -13z"></path>
<path d="M13061 20654 c0 -11 3 -14 6 -6 3 7 2 16 -1 19 -3 4 -6 -2 -5 -13z"></path>
<path d="M13030 20613 c0 -13 5 -23 10 -23 13 0 13 11 0 30 -8 12 -10 11 -10
-7z"></path>
<path d="M21755 20140 c-8 -13 5 -13 25 0 13 8 13 10 -2 10 -9 0 -20 -4 -23
-10z"></path>
<path d="M21608 20123 c12 -2 32 -2 45 0 12 2 2 4 -23 4 -25 0 -35 -2 -22 -4z"></path>
<path d="M21413 20113 c15 -2 39 -2 55 0 15 2 2 4 -28 4 -30 0 -43 -2 -27 -4z"></path>
<path d="M17475 20090 c-93 -3 -174 -7 -180 -9 -5 -2 -17 -1 -26 3 -26 12
-439 3 -447 -10 -10 -15 -44 -27 -69 -25 -13 1 -23 -2 -23 -8 0 -6 -7 -11 -15
-11 -8 0 -15 -4 -15 -9 0 -5 -9 -11 -21 -14 -16 -4 -19 -11 -14 -26 4 -12 2
-21 -4 -21 -7 0 -11 -24 -11 -60 0 -33 -3 -60 -7 -60 -5 0 -9 -26 -10 -57 -2
-31 -8 -60 -13 -63 -6 -4 -11 -31 -10 -61 0 -276 -3 -415 -11 -417 -17 -7 -9
-22 11 -22 14 0 20 -7 20 -22 0 -22 3 -23 59 -20 61 4 88 -9 104 -51 6 -15 26
-17 166 -17 107 0 162 -4 167 -11 4 -7 24 -9 50 -6 24 2 44 1 44 -4 0 -5 17
-9 38 -9 27 0 33 3 22 10 -13 8 -13 10 1 10 26 0 29 -20 31 -183 l1 -152 7
165 c4 100 11 174 19 188 6 12 14 39 16 60 10 79 17 112 25 112 5 0 10 10 12
22 5 32 55 42 164 30 94 -9 150 -4 254 25 30 8 74 20 97 26 32 9 47 20 65 49
25 41 64 58 142 61 39 2 41 1 44 -30 2 -18 -4 -43 -13 -57 -15 -22 -15 -27 -1
-53 8 -15 29 -41 45 -57 49 -46 64 -89 58 -165 -2 -39 2 -92 10 -131 10 -42
13 -88 9 -130 -4 -36 -6 -82 -6 -102 0 -20 -4 -39 -10 -43 -13 -8 -13 -65 -1
-65 6 0 6 -12 1 -31 -5 -18 -7 -35 -5 -40 3 -4 -6 -6 -20 -4 -14 1 -25 -2 -25
-6 0 -19 -4 -25 -29 -40 -21 -13 -39 -15 -83 -9 -51 7 -228 14 -303 12 -17 0
-56 -9 -87 -20 -58 -20 -98 -19 -144 6 -16 9 -119 26 -159 27 -5 0 -13 5 -17
10 -5 6 -14 3 -25 -8 -16 -16 -18 -16 -29 4 -9 18 -11 14 -13 -30 -1 -28 -5
-61 -9 -73 -9 -24 -6 -122 3 -147 4 -11 8 -11 22 0 9 8 24 13 33 11 10 -2 20
5 22 16 8 31 74 35 118 8 19 -12 58 -32 85 -45 28 -13 62 -35 76 -50 29 -30
72 -149 67 -189 -3 -25 -6 -27 -53 -27 -27 -1 -63 5 -79 13 -29 14 -226 14
-226 1 0 -4 -7 -10 -16 -13 -8 -3 -13 -2 -9 3 3 5 1 20 -5 33 -7 17 -8 11 -3
-27 3 -27 6 -74 6 -102 0 -29 4 -53 9 -53 4 0 8 6 9 13 1 16 19 -47 28 -103 4
-25 13 -54 19 -65 7 -11 16 -32 22 -47 5 -16 16 -28 24 -28 7 0 19 -13 26 -30
14 -34 41 -42 33 -10 -5 17 0 20 33 20 49 0 62 -9 70 -45 4 -25 -1 -36 -33
-67 -21 -20 -41 -37 -45 -38 -5 0 -12 0 -17 0 -5 0 -11 -11 -13 -25 -6 -27 1
-32 19 -14 7 7 12 6 16 -5 5 -12 0 -16 -19 -16 -13 0 -27 7 -30 15 -8 19 -24
20 -24 1 0 -11 -7 -12 -27 -7 -24 6 -29 14 -34 49 -3 23 -10 47 -16 53 -6 6
-9 18 -6 25 3 8 1 14 -5 14 -12 0 -22 -24 -22 -55 0 -13 -4 -26 -9 -30 -6 -3
-13 -27 -16 -53 -3 -26 -10 -55 -16 -64 -5 -10 -9 -28 -9 -41 0 -13 -3 -27 -7
-31 -12 -12 -9 -50 6 -65 12 -13 15 -12 27 4 8 10 14 15 14 9 -1 -19 -29 -46
-41 -38 -8 5 -10 3 -5 -5 5 -7 15 -10 24 -6 8 3 19 0 24 -7 12 -20 9 -31 -7
-24 -24 9 -18 -11 10 -32 14 -11 25 -27 25 -35 0 -9 9 -19 21 -22 11 -4 18
-13 15 -20 -2 -7 5 -21 17 -32 l22 -18 -19 23 c-23 27 -13 29 19 3 18 -13 21
-21 12 -30 -8 -8 -7 -11 4 -11 9 0 24 -9 34 -20 10 -11 21 -20 24 -20 13 0 44
88 49 138 3 40 1 52 -10 52 -8 0 -20 15 -26 34 -9 25 -18 34 -33 33 -16 -1
-20 -7 -17 -34 1 -17 -1 -35 -5 -39 -4 -4 -2 -13 4 -21 9 -10 8 -13 -2 -13
-26 0 -35 15 -35 52 0 46 -6 53 -33 37 -24 -16 -39 -6 -22 14 6 8 9 22 5 31
-4 11 2 19 20 26 31 11 33 35 10 97 -9 24 -14 46 -11 49 10 11 67 -20 67 -36
0 -8 12 -21 28 -28 23 -11 53 -47 97 -120 6 -9 17 -28 26 -42 9 -14 26 -55 38
-92 13 -38 28 -71 36 -75 9 -6 10 -15 4 -31 -7 -18 -16 -22 -46 -22 -21 1 -55
-2 -75 -6 -30 -5 -38 -11 -43 -34 -4 -16 -2 -38 4 -49 13 -23 15 -61 4 -61 -5
0 -23 9 -41 20 -18 11 -37 18 -43 15 -5 -4 -13 5 -18 18 -6 14 -20 32 -33 41
-22 16 -23 15 -29 -8 -11 -38 -20 -153 -11 -133 7 18 9 18 22 2 8 -9 38 -28
67 -41 39 -17 53 -28 53 -43 0 -12 -5 -21 -11 -21 -5 0 -9 -8 -8 -17 3 -28
-12 -82 -27 -94 -7 -6 -11 -16 -8 -23 3 -7 -2 -35 -11 -62 -31 -96 -33 -99
-66 -101 -17 -1 -37 -10 -45 -20 -12 -16 -13 -15 -15 12 -1 25 -3 23 -11 -15
-24 -116 -42 -564 -24 -610 8 -23 12 -410 4 -410 -5 0 -8 -5 -8 -12 0 -6 3 -8
7 -5 8 8 53 -32 53 -47 0 -5 10 -20 22 -33 20 -22 21 -23 2 -23 -16 0 -16 -2
-4 -10 8 -5 25 -7 37 -3 14 3 23 1 23 -6 0 -6 11 -11 25 -11 26 0 34 -15 13
-23 -7 -3 12 -6 42 -7 75 -2 121 -8 134 -19 6 -5 30 -14 54 -21 51 -13 69 -44
44 -73 -17 -19 -55 -17 -99 5 -40 20 -55 4 -47 -50 5 -37 2 -51 -10 -61 -20
-17 -20 -70 -1 -95 8 -11 15 -16 15 -10 0 5 5 2 10 -6 6 -10 10 -11 10 -2 0 6
4 12 10 12 5 0 7 -7 4 -15 -4 -8 -1 -22 6 -30 11 -13 8 -14 -21 -8 -19 3 -37
10 -40 15 -6 9 -241 9 -266 0 -7 -2 -13 -14 -13 -27 0 -12 -7 -28 -15 -35 -15
-12 -22 -75 -7 -67 4 3 7 -167 7 -376 0 -420 4 -539 19 -549 6 -4 5 -12 -3
-22 -9 -10 -12 -31 -8 -55 2 -22 1 -43 -3 -48 -5 -4 -10 -36 -12 -70 -3 -56 0
-67 24 -97 20 -25 24 -35 14 -39 -18 -7 -36 12 -37 37 0 14 -2 16 -6 6 -2 -8
-13 -33 -23 -55 -29 -64 -31 -75 -13 -68 11 4 14 2 9 -5 -9 -15 11 -52 28 -52
20 0 51 -42 54 -72 1 -16 -3 -28 -8 -28 -6 0 -10 5 -10 12 0 6 -3 8 -7 5 -3
-4 1 -15 10 -25 16 -17 15 -20 -4 -41 -12 -13 -21 -34 -21 -47 0 -22 -5 -24
-44 -24 -49 0 -52 -5 -54 -90 -2 -82 -2 -86 20 -87 24 -2 27 12 4 21 -14 5
-14 9 -3 22 11 14 15 13 30 -7 15 -20 15 -24 0 -40 -8 -11 -24 -19 -34 -19
-14 0 -17 -5 -13 -16 4 -12 2 -15 -9 -10 -11 4 -15 -2 -15 -27 0 -18 4 -27 8
-21 4 7 29 8 70 4 34 -3 69 -2 78 3 10 6 22 3 35 -9 20 -18 21 -17 57 25 20
24 53 60 74 79 21 19 38 41 38 47 0 7 20 31 45 54 25 23 45 50 45 60 0 14 12
21 53 29 56 11 68 9 49 -10 -15 -15 -15 -45 -1 -54 8 -4 9 0 4 15 -5 15 -2 21
9 21 9 0 16 -4 16 -10 0 -5 7 -7 15 -3 13 5 14 2 4 -21 -7 -14 -17 -25 -23
-24 -17 2 -50 -14 -62 -31 -12 -16 -13 -16 214 -88 46 -14 52 -19 52 -44 0
-15 5 -31 10 -34 6 -3 10 -17 10 -29 0 -13 7 -48 16 -77 8 -30 20 -72 27 -94
6 -22 14 -44 19 -49 4 -6 8 -21 8 -34 0 -13 4 -21 10 -17 6 4 8 15 5 25 -3 10
0 20 8 23 9 3 13 18 11 41 -2 22 1 34 6 31 6 -4 10 5 10 20 0 14 4 33 9 43 21
39 27 59 37 135 4 26 10 47 14 47 14 0 17 60 3 71 -7 6 -13 28 -13 49 0 20 -3
40 -7 44 -9 9 -10 13 -12 64 -1 21 -5 32 -9 25 -4 -7 -7 14 -6 47 1 32 5 64 9
69 3 7 -2 11 -14 11 -28 0 -59 29 -54 50 3 10 -8 28 -27 46 -17 16 -43 54 -57
84 -15 30 -28 49 -30 43 -2 -6 5 -30 16 -52 25 -48 26 -52 6 -44 -9 3 -21 -2
-28 -11 -7 -10 -33 -19 -64 -23 -45 -5 -53 -3 -53 11 0 24 24 96 32 96 4 0 10
17 14 38 4 20 15 49 25 64 11 14 19 31 19 37 0 6 15 18 33 27 48 24 67 44 67
70 0 15 25 45 77 93 42 39 90 87 106 106 l29 35 -26 -11 c-20 -10 -28 -9 -41
5 -18 18 -30 21 -20 6 4 -6 -5 -7 -23 -4 -17 4 -32 1 -36 -5 -4 -6 -20 -11
-37 -11 -16 0 -29 -4 -29 -10 0 -5 -13 -10 -29 -10 -24 0 -33 -7 -50 -40 -12
-22 -21 -47 -21 -55 0 -8 -4 -15 -10 -15 -5 0 -10 -7 -10 -15 0 -8 -9 -15 -20
-15 -11 0 -20 -3 -20 -8 0 -4 -15 -13 -32 -21 -43 -18 -91 -52 -84 -58 10 -11
-15 -43 -34 -43 -10 0 -22 -4 -25 -10 -4 -6 15 -10 50 -10 51 0 56 -2 50 -17
-15 -37 -11 -48 18 -46 15 1 25 -2 22 -7 -3 -5 -1 -11 4 -14 16 -10 -26 -81
-55 -95 -16 -7 -49 -15 -75 -18 l-48 -6 4 31 c4 28 2 30 -28 28 -29 -1 -32 2
-35 32 -2 17 -7 32 -12 32 -5 0 -16 3 -26 7 -13 5 -16 3 -11 -9 12 -31 -17
-52 -74 -52 -49 -1 -53 1 -60 25 -3 15 -3 33 2 40 8 13 -6 39 -21 39 -4 0 -12
-12 -19 -27 -10 -21 -14 -24 -21 -12 -5 7 -15 14 -22 14 -7 1 -11 7 -9 15 2 8
6 26 8 40 10 59 14 70 23 65 6 -3 10 -1 10 5 0 7 13 24 29 39 79 74 103 91
129 91 15 0 38 9 52 20 14 11 36 20 50 20 l25 0 -25 -20 c-14 -11 -40 -27 -57
-35 -18 -9 -33 -22 -33 -29 0 -8 -7 -16 -15 -20 -17 -6 -21 -56 -4 -56 35 0
144 67 177 109 20 25 43 52 51 59 9 7 16 16 17 20 2 24 30 62 45 62 10 0 21 5
24 10 3 6 17 10 31 10 13 0 24 4 24 9 0 17 88 26 255 26 l170 0 0 901 c0 733
-2 904 -13 917 -8 10 -13 37 -12 69 2 29 0 60 -3 68 -24 66 -38 440 -16 440 5
0 9 71 9 159 0 139 2 160 17 165 12 5 14 9 5 18 -16 16 -15 28 3 28 14 0 15
69 13 618 -1 339 -4 622 -7 627 -3 6 -6 15 -6 20 -1 6 -6 9 -11 8 -6 -1 -9 8
-7 21 3 13 -2 34 -11 47 -8 13 -15 26 -14 29 1 13 -25 96 -34 107 -6 7 -8 30
-4 50 3 21 8 56 11 78 4 22 9 47 12 55 3 8 5 26 4 39 -2 13 2 33 7 45 19 39
24 61 29 111 2 28 9 64 16 80 7 18 11 62 9 110 -2 44 -4 91 -5 105 0 14 3 284
8 601 l8 575 -39 -5 c-33 -5 -35 -6 -11 -9 15 -2 27 -10 27 -18 0 -18 -20 -18
-46 1 -12 8 -24 11 -28 8 -3 -4 -16 -7 -27 -8 -14 -1 -18 3 -14 13 3 9 0 19
-7 24 -10 6 -10 8 0 8 6 0 12 4 12 10 0 11 -443 18 -695 10z m425 -30 c-8 -5
-23 -7 -33 -4 -15 5 -18 2 -12 -14 6 -20 4 -20 -27 -10 -18 6 -55 13 -83 15
-94 9 -66 20 52 21 77 1 113 -2 103 -8z m166 1 c-6 -10 -52 -8 -63 3 -3 3 10
6 31 6 20 0 35 -4 32 -9z m54 -1 c0 -5 -7 -10 -15 -10 -8 0 -15 5 -15 10 0 6
7 10 15 10 8 0 15 -4 15 -10z m-176 -607 c-9 -37 -14 -42 -14 -14 0 16 -4 21
-14 18 -8 -3 -20 1 -26 9 -11 12 -7 14 24 14 35 0 36 -1 30 -27z m-1079 -303
l30 -20 -37 0 c-31 0 -38 4 -38 20 0 25 7 25 45 0z m1420 -1270 c3 -5 -1 -10
-9 -10 -9 0 -16 5 -16 10 0 6 4 10 9 10 6 0 13 -4 16 -10z m-13 -82 c-7 -7
-12 -8 -12 -2 0 14 12 26 19 19 2 -3 -1 -11 -7 -17z m8 -43 c0 -8 -4 -15 -10
-15 -5 0 -7 7 -4 15 4 8 8 15 10 15 2 0 4 -7 4 -15z m-186 -11 c9 -8 16 -26
16 -40 0 -13 5 -24 10 -24 11 0 14 -82 4 -93 -19 -18 -61 34 -87 109 -12 37
-12 42 2 52 23 15 37 14 55 -4z m-345 -52 c14 -56 7 -82 -21 -82 -16 0 -19 5
-15 22 4 13 -1 31 -14 46 -10 14 -19 30 -19 38 0 7 -6 15 -12 17 -7 3 5 6 28
6 40 1 40 1 53 -47z m496 -294 c8 -29 19 -54 24 -57 8 -5 15 -56 12 -86 -1 -6
-19 -11 -40 -12 -37 -2 -40 0 -47 30 -3 18 -9 37 -13 42 -32 52 -34 140 -2
148 30 7 50 -13 66 -65z m-336 -126 c28 -59 36 -67 83 -91 46 -24 55 -43 32
-74 -13 -17 -30 -27 -54 -29 -32 -3 -36 0 -58 41 -13 25 -24 58 -24 73 -1 21
-5 27 -15 24 -8 -3 -12 -2 -9 3 3 5 -6 30 -21 57 -26 47 -31 90 -16 139 5 16
11 9 31 -35 14 -30 37 -79 51 -108z m-499 -152 c0 -5 -4 -10 -10 -10 -5 0 -10
5 -10 10 0 6 5 10 10 10 6 0 10 -4 10 -10z m290 -330 c0 -5 -4 -10 -10 -10 -5
0 -10 5 -10 10 0 6 5 10 10 10 6 0 10 -4 10 -10z m-14 -26 c18 7 29 -13 15
-27 -8 -8 -14 -8 -22 0 -6 6 -18 9 -25 6 -8 -3 -14 0 -14 6 0 6 5 11 10 11 6
0 11 8 11 18 1 15 2 15 6 -1 3 -11 11 -16 19 -13z m44 -81 c0 -21 -3 -24 -9
-14 -5 8 -7 20 -4 28 8 21 13 15 13 -14z m510 -643 c0 -5 -2 -10 -4 -10 -3 0
-8 5 -11 10 -3 6 -1 10 4 10 6 0 11 -4 11 -10z m-311 -466 c24 -5 31 -12 31
-29 0 -38 -24 -50 -70 -35 -55 18 -70 38 -45 56 21 16 37 17 84 8z m-231 -218
c3 -12 -1 -17 -10 -14 -7 3 -15 13 -16 22 -3 12 1 17 10 14 7 -3 15 -13 16
-22z m-348 -566 c0 -5 -5 -10 -11 -10 -5 0 -7 5 -4 10 3 6 8 10 11 10 2 0 4
-4 4 -10z m-53 -92 c-3 -7 -5 -2 -5 12 0 14 2 19 5 13 2 -7 2 -19 0 -25z m411
-56 c2 -7 -3 -12 -12 -12 -9 0 -16 7 -16 16 0 17 22 14 28 -4z m-6 -99 c8 -9
6 -13 -5 -13 -18 0 -32 34 -20 52 5 9 9 7 11 -7 2 -11 9 -26 14 -32z m44 -31
c-3 -5 2 -21 10 -37 8 -16 14 -38 12 -49 -3 -16 -5 -15 -17 10 -7 16 -17 37
-23 47 -9 19 -3 37 13 37 6 0 8 -4 5 -8z m59 -122 c3 -5 -1 -10 -9 -10 -8 0
-18 5 -21 10 -3 6 1 10 9 10 8 0 18 -4 21 -10z m-1 -1061 c-3 -6 0 -15 7 -20
10 -6 5 -9 -16 -9 -17 0 -41 -8 -54 -17 -14 -9 -22 -12 -18 -7 3 6 -22 18 -55
28 -63 19 -77 14 -78 -22 0 -7 -4 -10 -10 -7 -14 8 -13 38 2 53 16 16 232 17
222 1z m-138 -64 c-2 -7 1 -18 7 -24 8 -8 7 -11 -5 -11 -16 0 -28 26 -21 48 3
6 9 9 15 6 5 -3 7 -12 4 -19z m317 8 c-7 -2 -19 -2 -25 0 -7 3 -2 5 12 5 14 0
19 -2 13 -5z m-369 -19 c9 -3 16 -13 16 -21 0 -20 -34 -12 -38 10 -4 19 -1 20
22 11z m104 -6 c-2 -6 -10 -14 -16 -16 -7 -2 -10 2 -6 12 7 18 28 22 22 4z
m382 -78 c0 -5 -2 -10 -4 -10 -3 0 -8 5 -11 10 -3 6 -1 10 4 10 6 0 11 -4 11
-10z m-66 -445 c-7 -16 -24 -21 -24 -6 0 8 7 13 27 20 1 1 0 -6 -3 -14z m31
-135 c-3 -5 -10 -10 -16 -10 -5 0 -9 5 -9 10 0 6 7 10 16 10 8 0 12 -4 9 -10z
m5 -30 c0 -5 -5 -10 -11 -10 -5 0 -7 5 -4 10 3 6 8 10 11 10 2 0 4 -4 4 -10z"></path>
<path d="M17810 20050 c0 -5 7 -10 15 -10 8 0 15 5 15 10 0 6 -7 10 -15 10 -8
0 -15 -4 -15 -10z"></path>
<path d="M16738 20073 c7 -3 16 -2 19 1 4 3 -2 6 -13 5 -11 0 -14 -3 -6 -6z"></path>
<path d="M18180 20060 c0 -5 9 -10 20 -10 11 0 20 5 20 10 0 6 -9 10 -20 10
-11 0 -20 -4 -20 -10z"></path>
<path d="M11565 19990 c-3 -5 -1 -10 4 -10 6 0 11 5 11 10 0 6 -2 10 -4 10 -3
0 -8 -4 -11 -10z"></path>
<path d="M12468 19113 c6 -2 18 -2 25 0 6 3 1 5 -13 5 -14 0 -19 -2 -12 -5z"></path>
<path d="M13927 19066 c-4 -10 -5 -21 -2 -24 9 -9 17 6 13 25 -3 17 -4 17 -11
-1z"></path>
<path d="M13922 19018 c-13 -13 -17 -88 -4 -88 4 0 6 16 4 36 -3 24 0 39 9 45
7 4 11 10 8 13 -3 3 -11 0 -17 -6z"></path>
<path d="M23625 19000 c-3 -5 -2 -10 4 -10 5 0 13 5 16 10 3 6 2 10 -4 10 -5
0 -13 -4 -16 -10z"></path>
<path d="M13892 18900 c0 -14 2 -19 5 -12 2 6 2 18 0 25 -3 6 -5 1 -5 -13z"></path>
<path d="M14811 18844 c0 -11 3 -14 6 -6 3 7 2 16 -1 19 -3 4 -6 -2 -5 -13z"></path>
<path d="M17311 18744 c0 -11 3 -14 6 -6 3 7 2 16 -1 19 -3 4 -6 -2 -5 -13z"></path>
<path d="M19759 18703 c-13 -17 -13 -17 6 -3 11 8 22 16 24 17 2 2 0 3 -6 3
-6 0 -17 -8 -24 -17z"></path>
<path d="M19819 18603 c-13 -3 -39 -42 -39 -58 0 -8 53 24 61 37 17 26 12 31
-22 21z"></path>
<path d="M19630 18580 c0 -5 5 -10 10 -10 6 0 10 5 10 10 0 6 -4 10 -10 10 -5
0 -10 -4 -10 -10z"></path>
<path d="M12893 18474 c-7 -7 -9 -15 -4 -19 5 -3 12 -19 16 -35 8 -35 20 -38
37 -10 7 11 19 20 26 20 24 0 7 23 -24 33 -16 6 -31 13 -34 17 -3 4 -11 2 -17
-6z"></path>
<path d="M23716 18424 c-4 -10 -1 -14 6 -12 15 5 23 28 10 28 -5 0 -13 -7 -16
-16z"></path>
<path d="M12930 18370 c0 -5 5 -10 10 -10 6 0 10 5 10 10 0 6 -4 10 -10 10 -5
0 -10 -4 -10 -10z"></path>
<path d="M12951 18314 c0 -11 3 -14 6 -6 3 7 2 16 -1 19 -3 4 -6 -2 -5 -13z"></path>
<path d="M17360 18300 c0 -5 5 -10 11 -10 5 0 7 5 4 10 -3 6 -8 10 -11 10 -2
0 -4 -4 -4 -10z"></path>
<path d="M12950 18274 c0 -8 5 -12 10 -9 6 4 8 11 5 16 -9 14 -15 11 -15 -7z"></path>
<path d="M12951 18224 c0 -11 3 -14 6 -6 3 7 2 16 -1 19 -3 4 -6 -2 -5 -13z"></path>
<path d="M17311 18214 c0 -11 3 -14 6 -6 3 7 2 16 -1 19 -3 4 -6 -2 -5 -13z"></path>
<path d="M17311 18174 c0 -11 3 -14 6 -6 3 7 2 16 -1 19 -3 4 -6 -2 -5 -13z"></path>
<path d="M12950 18168 c0 -9 5 -20 10 -23 13 -8 13 5 0 25 -8 13 -10 13 -10
-2z"></path>
<path d="M13617 18113 c-8 -12 1 -23 49 -60 41 -31 42 -32 59 -13 16 17 16 19
-4 29 -11 6 -28 11 -37 11 -10 0 -28 9 -40 21 -12 11 -24 17 -27 12z"></path>
<path d="M13672 17950 c-23 -16 -46 -30 -52 -30 -5 0 -10 -4 -10 -10 0 -5 -6
-10 -14 -10 -8 0 -16 -7 -20 -15 -3 -8 -14 -15 -25 -15 -11 0 -23 -5 -26 -10
-4 -6 -11 -8 -16 -5 -5 4 -9 1 -9 -5 0 -6 -12 -16 -27 -23 -16 -6 -30 -14 -33
-17 -3 -3 -40 -22 -84 -44 -54 -27 -80 -35 -85 -27 -9 14 -59 -9 -87 -40 -10
-12 -32 -30 -49 -40 -16 -11 -24 -19 -17 -19 7 0 10 -5 7 -10 -4 -6 -10 -8
-15 -5 -10 6 -80 -33 -80 -44 0 -4 -12 -13 -26 -20 -46 -21 -104 -75 -104 -98
0 -14 22 -41 61 -76 47 -43 60 -61 57 -79 -2 -13 -9 -22 -16 -20 -7 1 -18 -10
-24 -25 -8 -21 -12 -24 -15 -11 -2 9 1 26 6 37 17 30 14 32 -31 29 l-43 -3 -3
-52 c-2 -30 1 -53 6 -53 25 0 19 -182 -6 -199 -5 -4 -4 -46 1 -95 7 -66 15
-94 29 -108 20 -20 20 -20 48 13 24 29 33 33 66 31 22 -2 51 -8 66 -13 20 -8
34 -8 55 3 30 15 103 13 103 -3 0 -5 11 -2 24 6 16 11 22 22 19 35 -7 27 2 25
45 -9 20 -16 54 -33 75 -36 20 -4 37 -11 37 -17 0 -5 16 -16 36 -24 34 -14 37
-14 56 5 22 25 36 26 62 6 26 -19 46 -19 46 1 0 22 65 47 90 34 37 -20 42 -46
20 -96 l-21 -46 -62 7 c-110 12 -224 10 -241 -4 -14 -11 -23 -11 -59 3 -40 15
-46 15 -75 1 -23 -12 -36 -13 -51 -6 -29 16 -56 13 -75 -8 -14 -16 -28 -18
-83 -16 -35 2 -72 10 -81 17 -39 31 -84 48 -80 31 4 -18 -25 -61 -38 -56 -9 3
-14 -2 -15 -13 0 -18 -1 -17 -9 1 -7 17 -9 17 -9 3 -1 -10 -2 -21 -3 -25 -2
-4 22 -15 52 -24 30 -9 59 -24 65 -34 5 -10 17 -26 25 -35 8 -9 20 -25 26 -36
18 -30 38 -5 24 31 l-10 27 37 -7 c21 -3 61 -13 88 -21 28 -9 66 -19 85 -24
77 -21 146 -42 160 -49 15 -8 97 0 154 14 19 5 31 3 38 -6 7 -10 11 -11 14 -2
4 9 14 7 37 -5 28 -15 65 -19 129 -13 10 0 29 19 43 41 22 34 25 51 25 125 0
73 -3 88 -20 102 -16 14 -19 25 -14 53 4 19 13 39 20 43 19 11 19 87 0 87 -10
0 -15 20 -19 78 -7 99 -10 115 -24 127 -6 6 -13 19 -15 29 -2 12 -12 20 -26
21 -30 2 -48 22 -57 63 -6 31 -5 33 14 27 15 -5 21 -2 21 9 0 10 -9 16 -26 16
-14 0 -23 4 -19 10 4 6 11 8 16 5 13 -9 11 1 -10 49 -11 23 -18 51 -16 62 2
10 4 26 5 34 1 10 3 11 7 3 13 -33 19 -7 10 48 -5 39 -5 64 1 68 5 3 15 59 23
124 7 64 17 117 22 117 4 0 5 5 1 11 -4 8 -9 7 -14 -2 -7 -10 -12 -10 -25 1
-14 12 -18 12 -26 -1 -5 -8 -9 -9 -9 -3 0 14 -101 7 -155 -11 -47 -15 -85 -4
-64 21 6 8 16 14 21 14 6 0 5 -7 -2 -15 -7 -8 -8 -15 -2 -15 11 0 38 30 34 39
-2 3 11 9 29 12 17 4 35 12 38 18 4 6 27 12 52 14 24 1 47 6 51 11 4 6 12 5
21 -3 10 -8 17 -9 22 -1 10 16 35 12 36 -7 1 -12 4 -9 8 7 7 26 -4 56 -31 83
-21 22 -18 22 -66 -13z"></path>
<path d="M15680 17951 c0 -5 7 -11 15 -15 9 -3 15 0 15 9 0 8 -7 15 -15 15 -8
0 -15 -4 -15 -9z"></path>
<path d="M15770 17944 c0 -14 3 -14 15 -4 8 7 15 14 15 16 0 2 -7 4 -15 4 -8
0 -15 -7 -15 -16z"></path>
<path d="M23821 17811 c-9 -6 -10 -11 -2 -15 6 -4 11 -12 11 -17 0 -6 -5 -7
-12 -3 -7 5 -8 3 -3 -5 4 -8 -8 -28 -36 -54 -23 -22 -37 -43 -31 -45 6 -2 8
-10 5 -19 -12 -31 17 -3 36 35 10 20 30 49 44 63 32 35 41 69 19 69 -10 0 -23
-4 -31 -9z"></path>
<path d="M20279 17733 c-13 -16 -12 -17 4 -4 16 13 21 21 13 21 -2 0 -10 -8
-17 -17z"></path>
<path d="M12923 17658 c2 -7 10 -13 17 -13 7 0 15 6 18 13 2 7 -5 12 -18 12
-13 0 -20 -5 -17 -12z"></path>
<path d="M12970 17660 c0 -5 5 -10 10 -10 6 0 10 5 10 10 0 6 -4 10 -10 10 -5
0 -10 -4 -10 -10z"></path>
<path d="M12901 17581 c-1 -33 28 -54 48 -34 11 12 12 16 1 23 -7 4 -9 13 -5
20 5 9 4 11 -4 6 -6 -4 -9 -16 -6 -27 10 -30 -12 -22 -23 9 -10 26 -10 26 -11
3z"></path>
<path d="M15700 17511 c0 -5 8 -12 18 -14 13 -4 12 -5 -5 -6 -12 0 -28 -10
-36 -21 -7 -10 -22 -18 -33 -18 -10 1 -31 -1 -46 -5 -15 -4 -30 -3 -33 3 -4 6
-10 8 -15 5 -11 -7 0 -48 16 -57 7 -5 10 -17 7 -29 -5 -18 -3 -20 13 -11 10 5
40 33 65 61 26 28 51 51 56 51 19 0 33 23 22 37 -13 15 -29 17 -29 4z"></path>
<path d="M15548 17503 c7 -3 16 -2 19 1 4 3 -2 6 -13 5 -11 0 -14 -3 -6 -6z"></path>
<path d="M13735 17221 c-6 -11 9 -23 19 -14 9 9 7 23 -3 23 -6 0 -12 -4 -16
-9z"></path>
<path d="M13750 17175 c0 -8 5 -15 10 -15 6 0 10 7 10 15 0 8 -4 15 -10 15 -5
0 -10 -7 -10 -15z"></path>
<path d="M23803 17091 c-30 -25 -33 -53 -5 -67 12 -6 29 -20 37 -30 13 -18 14
-17 15 14 0 17 5 32 12 32 6 0 4 7 -5 18 -10 10 -17 24 -17 30 0 19 -15 21
-37 3z"></path>
<path d="M15245 16961 c-3 -6 -16 -11 -29 -11 -13 0 -31 -9 -41 -20 -10 -11
-26 -20 -36 -20 -10 0 -21 -4 -24 -10 -3 -5 -31 -10 -61 -10 -39 0 -54 -4 -54
-14 0 -17 -22 -26 -48 -19 -13 3 -27 -3 -38 -16 -21 -24 -52 -28 -60 -6 -5 11
-9 12 -25 2 -11 -7 -17 -18 -14 -26 3 -7 1 -19 -4 -25 -13 -16 -24 -153 -13
-160 6 -3 8 -29 5 -58 -4 -50 10 -98 29 -98 5 0 6 5 2 11 -3 6 -1 15 5 19 7 4
13 13 14 21 2 8 14 26 27 41 14 14 36 39 50 55 14 15 43 44 65 63 22 18 39 38
38 42 -2 4 2 8 7 8 6 0 10 7 10 16 0 10 6 14 14 11 10 -4 13 -1 10 8 -5 13 17
46 31 45 3 0 5 3 4 6 0 4 19 20 43 38 49 34 114 104 105 112 -3 3 -8 1 -12 -5z"></path>
<path d="M23804 16816 c-18 -14 -18 -17 -4 -43 10 -17 25 -28 38 -29 20 -1 22
4 22 42 0 36 -3 44 -18 44 -10 0 -27 -6 -38 -14z"></path>
<path d="M13500 16745 c7 -8 17 -12 22 -9 6 4 5 10 -3 15 -22 14 -33 10 -19
-6z"></path>
<path d="M17362 16660 c0 -19 2 -27 5 -17 2 9 2 25 0 35 -3 9 -5 1 -5 -18z"></path>
<path d="M21405 16680 c3 -5 8 -10 11 -10 2 0 4 5 4 10 0 6 -5 10 -11 10 -5 0
-7 -4 -4 -10z"></path>
<path d="M22320 16680 c8 -5 20 -10 25 -10 6 0 3 5 -5 10 -8 5 -19 10 -25 10
-5 0 -3 -5 5 -10z"></path>
<path d="M21484 16615 c53 -87 249 -245 302 -245 8 0 14 -4 14 -10 0 -11 252
-14 264 -3 9 9 77 33 95 33 8 0 19 7 26 16 6 9 24 17 38 17 15 0 27 3 27 8 0
5 13 9 29 9 16 0 34 7 41 15 8 9 8 15 2 15 -6 0 -12 -5 -14 -11 -2 -6 -14 -9
-27 -7 l-24 3 29 34 29 34 6 -24 c6 -19 7 -15 8 18 1 23 4 43 9 45 4 2 4 19 1
38 -4 19 -7 27 -8 18 -1 -15 -13 -16 -108 -13 -71 3 -114 10 -129 20 -13 8
-25 11 -28 6 -4 -5 -30 -12 -59 -16 -28 -4 -68 -11 -87 -17 -27 -7 -82 -4
-218 12 -100 12 -187 18 -192 15 -6 -4 -18 -1 -28 7 -14 11 -14 9 2 -17z"></path>
<path d="M17352 16530 c0 -14 2 -19 5 -12 2 6 2 18 0 25 -3 6 -5 1 -5 -13z"></path>
<path d="M13554 16455 c-18 -14 -18 -14 3 -15 23 0 39 15 25 24 -5 3 -18 -1
-28 -9z"></path>
<path d="M20490 16381 c0 -6 4 -13 10 -16 6 -3 7 1 4 9 -7 18 -14 21 -14 7z"></path>
<path d="M15722 16304 c-30 -24 -58 -44 -63 -44 -6 0 -7 -5 -3 -11 12 -20 -47
0 -83 27 -17 13 -36 24 -42 24 -6 0 -11 5 -11 10 0 6 -4 10 -10 10 -17 0 -11
-24 13 -50 13 -14 32 -38 41 -53 18 -26 18 -27 -3 -27 -11 0 -21 -4 -21 -10 0
-5 -7 -10 -15 -10 -8 0 -15 -4 -15 -10 0 -5 -5 -10 -11 -10 -16 0 -83 -32 -90
-43 -4 -5 -11 -7 -16 -4 -5 3 -24 -3 -41 -14 -18 -10 -39 -19 -47 -19 -8 0
-15 -4 -15 -10 0 -5 -7 -7 -15 -4 -8 4 -15 1 -15 -6 0 -24 -53 -5 -69 25 -16
30 -43 36 -65 14 -6 -5 -18 -9 -28 -9 -10 0 -18 -4 -18 -9 0 -5 -14 -13 -32
-16 -18 -4 -39 -11 -48 -16 -24 -12 -54 -22 -63 -21 -14 3 -26 -47 -29 -115
-2 -53 -8 -72 -25 -91 -12 -13 -21 -27 -21 -31 3 -10 -35 -125 -46 -140 -14
-18 -10 -311 4 -325 5 -5 10 -26 10 -46 0 -20 3 -39 6 -42 7 -8 8 -417 0 -425
-3 -4 -6 -66 -6 -140 0 -82 -4 -133 -10 -133 -6 0 -10 -48 -10 -124 0 -98 -3
-128 -15 -140 -8 -8 -11 -17 -7 -20 8 -5 5 -376 -3 -384 -2 -3 3 -11 11 -19
14 -15 14 -49 -2 -153 l-6 -35 23 20 c13 11 35 32 49 47 33 35 80 41 95 12 8
-17 18 -21 45 -18 l35 3 -50 -45 c-49 -44 -51 -45 -102 -40 -28 3 -58 9 -67
12 -13 5 -16 -2 -17 -32 -1 -22 -1 -54 0 -71 2 -18 -2 -48 -8 -65 -6 -18 -13
-48 -16 -67 -3 -18 -15 -68 -27 -109 -23 -86 -23 -88 -33 -159 -4 -29 -11 -53
-16 -53 -5 0 -9 -16 -9 -35 0 -19 -5 -35 -10 -35 -7 0 -10 -28 -9 -74 1 -40
-1 -78 -5 -84 -13 -21 -9 -92 6 -109 19 -22 29 -61 17 -65 -12 -4 8 -66 30
-92 9 -11 10 -16 3 -12 -7 4 -19 3 -26 -4 -8 -6 -25 -8 -39 -5 -24 6 -26 4
-32 -39 -4 -25 -16 -55 -26 -67 -10 -12 -19 -28 -19 -34 0 -7 -6 -15 -13 -18
-7 -2 -21 -31 -30 -63 -10 -33 -22 -68 -27 -79 -5 -11 -16 -44 -25 -72 -9 -29
-21 -53 -26 -53 -6 0 -9 -6 -7 -12 2 -13 -6 -46 -21 -83 -27 -66 -119 -291
-138 -335 -8 -19 -19 -42 -23 -50 -25 -42 -60 -118 -65 -142 -4 -14 -15 -35
-26 -47 -10 -11 -19 -25 -19 -31 0 -6 -4 -8 -10 -5 -5 3 -10 -1 -10 -9 0 -9
-4 -16 -10 -16 -5 0 -10 -7 -10 -15 0 -8 -4 -15 -10 -15 -5 0 -10 -9 -10 -20
0 -11 -5 -20 -11 -20 -6 0 -9 -7 -5 -15 3 -8 1 -15 -4 -15 -6 0 -10 -6 -10
-13 0 -8 -11 -24 -25 -37 -14 -13 -25 -29 -25 -36 0 -6 -11 -25 -24 -40 -14
-16 -47 -58 -75 -94 -28 -36 -64 -81 -80 -101 -17 -19 -51 -64 -77 -99 -26
-35 -66 -84 -89 -109 -23 -25 -44 -51 -46 -58 -2 -7 -73 -81 -156 -166 -130
-130 -153 -158 -153 -184 0 -25 -7 -34 -49 -56 -27 -15 -56 -27 -65 -27 -9 0
-16 -4 -16 -10 0 -5 -5 -10 -11 -10 -6 0 -17 -7 -25 -15 -8 -8 -21 -12 -29 -9
-9 4 -15 0 -15 -8 0 -7 -15 -21 -33 -31 -18 -10 -46 -30 -62 -45 -32 -30 -124
-87 -140 -87 -11 -1 -75 -40 -140 -85 -38 -26 -123 -71 -230 -121 l-50 -24
110 -3 c69 -2 118 2 131 9 14 7 61 10 133 7 61 -2 111 0 111 4 0 5 11 8 24 8
25 0 66 15 151 55 28 13 67 27 88 31 20 3 37 10 37 15 0 5 10 9 21 9 12 0 38
10 58 23 58 36 75 46 98 56 11 5 24 15 28 21 3 5 11 8 16 4 9 -5 26 2 109 48
82 46 105 57 138 70 17 7 32 16 32 20 0 5 9 8 20 8 11 0 20 4 20 8 0 5 24 24
53 42 67 44 80 57 66 65 -6 4 -10 21 -9 39 1 17 1 36 0 41 -3 12 -3 8 4 67 3
26 16 69 29 96 15 31 22 61 20 79 -4 22 2 38 20 58 21 25 31 29 70 27 25 -2
48 1 51 6 3 5 30 9 61 8 30 -1 55 2 55 6 0 5 -6 8 -12 8 -10 1 79 40 90 40 7
0 0 -60 -8 -65 -6 -4 -10 -3 -9 2 4 23 -3 33 -26 33 -27 0 -34 -17 -10 -26 8
-4 15 -9 15 -13 0 -11 -53 -31 -85 -31 -23 0 -41 -10 -70 -40 l-39 -40 12 -47
c7 -25 9 -49 5 -52 -4 -3 -8 -25 -8 -48 0 -56 22 -57 70 -6 19 20 35 33 35 28
0 -15 91 78 102 105 6 14 17 74 24 133 7 60 17 114 23 121 6 7 28 21 48 32 21
10 40 21 43 24 3 3 14 10 25 16 62 33 91 50 95 55 3 4 16 10 30 14 14 4 33 17
42 27 9 11 22 17 27 13 6 -3 11 -2 11 3 0 5 26 22 58 38 31 16 59 32 62 35 3
3 30 19 60 37 50 28 120 105 120 131 0 5 3 11 8 13 11 5 62 75 62 86 0 5 6 15
14 21 8 7 21 26 30 44 19 38 39 70 46 77 15 13 67 92 90 135 6 11 28 52 49 92
27 51 35 75 28 82 -8 8 -8 11 1 11 7 0 12 7 12 15 0 8 5 15 10 15 6 0 10 7 10
15 0 8 5 15 11 15 5 0 7 5 3 11 -3 6 -2 14 3 18 5 3 26 42 47 85 21 44 45 87
53 95 13 13 35 56 37 73 1 3 4 10 9 14 4 4 7 17 7 28 0 29 26 100 37 103 5 2
7 17 5 33 -3 23 0 30 12 30 10 0 16 9 16 24 0 14 5 28 10 31 6 3 10 19 10 34
0 15 3 31 8 35 4 4 7 11 8 14 0 4 4 28 8 55 6 32 5 52 -3 61 -8 9 -8 16 -2 20
6 4 8 13 4 21 -3 9 1 15 9 15 12 0 15 16 17 68 3 91 18 264 30 337 6 33 7 71
4 84 -4 16 0 28 11 36 9 7 15 17 14 23 -2 6 4 17 13 24 12 9 19 36 23 86 3 41
9 79 13 85 5 7 13 35 19 62 6 28 13 57 15 65 3 11 -3 14 -23 12 -16 -2 -28 0
-28 5 0 12 34 40 57 47 24 8 23 -3 29 199 4 92 9 167 13 167 8 0 6 168 -2 177
-8 7 -10 77 -3 84 10 10 16 519 6 519 -5 0 -10 6 -10 13 0 6 -14 38 -30 71
-16 32 -27 62 -25 66 3 5 0 12 -6 15 -5 4 -8 13 -5 21 3 8 2 14 -2 14 -8 0
-32 49 -32 66 0 6 -12 33 -27 60 -27 48 -33 108 -13 128 6 6 10 23 10 38 0 15
5 28 10 28 6 0 10 15 10 34 0 19 4 37 10 41 5 3 7 12 4 19 -3 8 -1 17 5 21 6
3 11 19 11 36 0 16 5 29 10 29 6 0 10 15 10 34 0 19 5 38 10 41 6 4 8 15 5 26
-4 11 -2 19 4 19 6 0 11 16 11 35 0 19 5 35 11 35 7 0 10 12 7 30 -3 17 -1 30
3 30 4 0 9 15 12 33 3 17 10 51 15 74 5 23 7 45 3 48 -3 4 -4 55 -2 116 2 84
-1 110 -11 114 -10 4 -12 25 -10 83 6 127 6 127 -56 76z m-562 -1250 c0 -7 -5
-16 -11 -20 -7 -4 -9 -21 -5 -46 9 -54 -29 -121 -49 -88 -4 6 -12 7 -18 3 -16
-10 -108 -10 -129 0 -14 6 -18 20 -18 56 0 67 28 91 123 106 79 12 107 10 107
-11z m512 -909 c70 -73 79 -102 41 -143 -13 -14 -23 -30 -23 -37 0 -7 -9 -20
-20 -30 -16 -14 -18 -21 -8 -27 8 -6 5 -7 -9 -3 -17 5 -23 2 -23 -9 0 -8 -19
-33 -42 -55 -50 -46 -52 -44 -64 57 -5 48 -3 64 12 87 19 29 24 106 12 183
l-7 42 34 0 c28 0 44 -10 97 -65z m-580 -455 c6 0 8 -7 5 -15 -4 -8 -2 -17 3
-20 6 -4 10 -11 10 -18 0 -6 -13 3 -30 21 -34 37 -37 47 -14 38 9 -3 20 -6 26
-6z m383 -62 c42 -16 75 -48 75 -73 0 -28 -35 -59 -82 -74 -44 -14 -75 -7 -83
18 -7 23 -39 61 -51 61 -5 0 -20 9 -33 19 l-25 19 44 20 c50 23 111 27 155 10z
m-260 -17 c-3 -5 -1 -12 5 -16 6 -4 8 -11 4 -16 -4 -6 -11 -6 -20 2 -11 9 -17
5 -31 -20 -15 -26 -24 -31 -56 -31 -34 0 -38 3 -35 22 3 22 25 37 83 56 40 13
57 14 50 3z m-555 -1061 c0 -5 -2 -10 -4 -10 -3 0 -8 5 -11 10 -3 6 -1 10 4
10 6 0 11 -4 11 -10z"></path>
<path d="M15064 15003 c-10 -15 -13 -16 -28 -4 -13 11 -19 11 -31 1 -19 -16
-19 -34 0 -50 13 -10 19 -10 34 4 10 9 29 15 42 14 20 -3 25 2 27 25 3 21 -1
27 -15 27 -10 0 -23 -8 -29 -17z"></path>
<path d="M15540 13900 c0 -5 5 -10 10 -10 6 0 10 5 10 10 0 6 -4 10 -10 10 -5
0 -10 -4 -10 -10z"></path>
<path d="M13609 16298 c-1 -2 -2 -19 -4 -38 -2 -19 -8 -36 -14 -38 -6 -2 -11
-11 -11 -19 0 -10 6 -14 20 -10 11 3 23 1 26 -5 3 -5 16 -7 29 -4 15 4 25 1
29 -10 8 -21 28 -7 21 16 -3 11 0 20 10 23 13 6 13 10 -3 41 -17 35 -42 55
-42 35 0 -6 5 -20 11 -32 6 -14 0 -10 -18 11 -23 27 -49 41 -54 30z m51 -58
c0 -5 -4 -10 -10 -10 -5 0 -10 5 -10 10 0 6 5 10 10 10 6 0 10 -4 10 -10z"></path>
<path d="M12896 16081 c-7 -11 -1 -119 7 -127 3 -3 1 -15 -6 -25 -9 -15 -9
-23 0 -39 17 -26 17 -788 0 -808 -6 -8 -12 -74 -15 -156 -4 -131 -2 -146 18
-189 16 -34 28 -47 44 -47 25 -1 53 -23 85 -69 20 -27 21 -35 10 -43 -11 -7
-11 -11 -1 -15 6 -2 12 -9 12 -15 0 -6 -9 -3 -20 7 -33 29 -78 27 -49 -2 6 -6
17 -22 23 -35 7 -12 18 -22 25 -20 6 1 14 -6 18 -15 3 -10 24 -37 46 -60 l41
-43 98 0 c54 0 98 -3 98 -7 0 -5 105 -7 232 -6 l233 1 2 184 c0 100 4 192 8
203 4 11 11 30 16 43 5 12 13 32 18 45 5 12 12 31 16 42 3 11 5 146 4 300 -2
392 1 518 13 532 8 10 6 13 -6 13 -12 0 -16 10 -16 39 0 22 -4 43 -10 46 -13
8 -13 92 0 100 17 10 0 26 -21 20 -11 -4 -19 -2 -19 4 0 6 -6 11 -14 11 -7 0
-34 11 -60 25 l-48 25 -39 -34 c-30 -25 -48 -33 -72 -31 -18 2 -32 4 -32 5 0
1 -25 4 -55 6 -30 3 -73 10 -95 15 -22 6 -65 15 -95 21 -30 6 -62 17 -71 24
-21 19 -69 18 -69 -1 0 -8 -3 -15 -6 -15 -7 0 -69 27 -96 41 -10 5 -23 9 -30
9 -7 0 -35 11 -62 25 -56 29 -53 28 -60 16z m859 -1142 c15 -15 14 -19 -6 -53
-14 -24 -27 -35 -36 -32 -8 3 -11 1 -8 -4 5 -8 -21 -15 -46 -12 -6 1 -15 -32
-19 -66 -1 -4 -9 -15 -17 -24 -13 -14 -33 -18 -97 -18 -45 0 -86 4 -93 8 -9 6
0 33 33 102 25 52 50 101 57 108 17 21 210 13 232 -9z m-163 -416 c9 -8 20
-28 23 -43 4 -20 11 -27 23 -23 10 2 22 -5 30 -17 13 -21 6 -26 -17 -11 -9 6
-19 4 -28 -4 -16 -17 -17 -32 0 -38 6 -3 -36 -6 -95 -6 -92 -1 -108 1 -108 15
0 8 -4 12 -10 9 -23 -14 -8 21 23 54 29 31 29 32 5 15 -15 -10 -28 -22 -28
-26 0 -5 -5 -8 -12 -8 -7 0 12 25 42 55 30 31 60 53 67 51 7 -3 15 -1 18 4 7
11 38 -2 67 -27z m113 -133 c3 -5 1 -10 -4 -10 -6 0 -11 5 -11 10 0 6 2 10 4
10 3 0 8 -4 11 -10z"></path>
<path d="M13444 14448 c-19 -21 -19 -21 4 -9 18 10 23 9 28 -3 3 -8 3 -20 0
-25 -10 -15 64 -26 86 -12 10 6 24 9 30 5 7 -4 8 -3 4 5 -4 6 -1 14 7 17 21 8
9 44 -14 44 -10 0 -22 -8 -28 -17 -7 -13 -13 -14 -23 -6 -7 5 -27 13 -44 16
-25 5 -36 1 -50 -15z"></path>
<path d="M20690 16081 c0 -5 5 -13 10 -16 6 -3 10 -2 10 4 0 5 -4 13 -10 16
-5 3 -10 2 -10 -4z"></path>
<path d="M20620 16039 c0 -5 5 -7 10 -4 6 3 10 8 10 11 0 2 -4 4 -10 4 -5 0
-10 -5 -10 -11z"></path>
<path d="M20680 16046 c0 -2 8 -10 18 -17 15 -13 16 -12 3 4 -13 16 -21 21
-21 13z"></path>
<path d="M20720 16031 c0 -5 5 -13 10 -16 6 -3 10 -2 10 4 0 5 -4 13 -10 16
-5 3 -10 2 -10 -4z"></path>
<path d="M19650 16003 c0 -5 10 -18 23 -29 l22 -19 -20 25 c-11 14 -21 27 -22
29 -2 2 -3 0 -3 -6z"></path>
<path d="M19900 15714 c0 -20 56 -65 73 -58 10 3 17 11 17 16 0 6 -7 7 -17 4
-10 -4 -26 3 -45 21 -15 15 -28 22 -28 17z"></path>
<path d="M20045 15660 c-3 -5 -1 -10 4 -10 6 0 11 5 11 10 0 6 -2 10 -4 10 -3
0 -8 -4 -11 -10z"></path>
<path d="M19990 15646 c0 -4 9 -16 20 -28 11 -12 20 -17 20 -11 0 5 -9 18 -20
28 -11 10 -20 15 -20 11z"></path>
<path d="M21140 15521 c0 -6 5 -13 10 -16 6 -3 10 1 10 9 0 9 -4 16 -10 16 -5
0 -10 -4 -10 -9z"></path>
<path d="M21210 15369 c0 -5 5 -7 10 -4 6 3 10 8 10 11 0 2 -4 4 -10 4 -5 0
-10 -5 -10 -11z"></path>
<path d="M23822 15143 c0 -73 4 -91 19 -106 19 -17 19 -15 19 88 0 96 -2 105
-19 105 -17 0 -19 -8 -19 -87z"></path>
<path d="M17373 15093 c-7 -15 -13 -34 -13 -43 0 -9 -5 -21 -12 -28 -6 -6 -8
-15 -4 -19 4 -4 17 5 30 20 l24 28 46 -22 c25 -13 47 -28 50 -36 10 -24 -24
-43 -75 -43 -59 0 -65 -16 -9 -25 22 -4 46 -12 53 -18 14 -14 97 -23 97 -11 0
10 -21 74 -32 100 -6 12 -8 30 -6 40 2 11 -7 29 -20 41 -22 20 -22 22 -5 33
15 9 14 10 -7 4 -14 -3 -30 -12 -36 -20 -15 -19 -28 -18 -20 2 5 13 2 15 -14
11 -11 -3 -20 -1 -20 4 0 18 -15 8 -27 -18z"></path>
<path d="M17310 15069 c0 -5 5 -7 10 -4 6 3 10 8 10 11 0 2 -4 4 -10 4 -5 0
-10 -5 -10 -11z"></path>
<path d="M17311 14996 c-1 -53 1 -58 12 -41 9 11 19 15 28 11 8 -4 4 1 -8 11
-12 10 -24 32 -26 48 -2 17 -5 3 -6 -29z"></path>
<path d="M23800 14915 c0 -8 5 -15 10 -15 6 0 10 7 10 15 0 8 -4 15 -10 15 -5
0 -10 -7 -10 -15z"></path>
<path d="M17548 14853 c7 -3 16 -2 19 1 4 3 -2 6 -13 5 -11 0 -14 -3 -6 -6z"></path>
<path d="M22883 14730 c0 -41 2 -58 4 -37 2 20 2 54 0 75 -2 20 -4 3 -4 -38z"></path>
<path d="M11238 14553 c-14 -2 -34 -15 -43 -29 -9 -14 -20 -22 -25 -19 -6 4
-10 1 -10 -6 0 -8 -14 -10 -49 -6 -30 4 -53 1 -60 -6 -8 -8 -11 -6 -12 9 -2
31 -18 -57 -18 -103 l-1 -43 158 -2 c195 -2 180 -3 282 17 139 27 150 28 150
16 0 -18 25 -13 45 9 25 28 42 25 76 -11 16 -17 33 -28 38 -25 5 4 12 2 16 -4
7 -12 25 -13 41 -2 7 4 15 43 19 87 3 44 3 75 -2 70 -10 -14 -51 -17 -58 -4
-8 12 -152 12 -160 -1 -11 -17 -58 -11 -81 11 -12 11 -30 20 -40 19 -53 -1
-79 -7 -77 -17 1 -6 -16 -13 -38 -17 -22 -3 -48 -12 -59 -18 -24 -15 -32 -8
-39 39 -6 39 -11 42 -53 36z"></path>
<path d="M22235 14520 c-7 -11 2 -30 13 -30 4 0 14 5 22 10 13 9 13 11 0 20
-19 12 -27 12 -35 0z m25 -10 c0 -5 -5 -10 -11 -10 -5 0 -7 5 -4 10 3 6 8 10
11 10 2 0 4 -4 4 -10z"></path>
<path d="M21640 14475 c-1 -5 -1 -22 0 -37 2 -34 -17 -36 -74 -9 -44 21 -76
12 -76 -22 0 -14 -5 -17 -21 -12 -12 4 -31 8 -43 9 -12 2 -43 11 -69 21 -44
17 -49 17 -65 1 -10 -9 -29 -16 -42 -16 -23 0 -22 -2 15 -40 23 -24 48 -40 62
-40 13 0 23 -4 23 -10 0 -5 13 -10 29 -10 17 0 32 -4 36 -9 3 -6 27 -13 53
-17 26 -3 53 -11 60 -17 16 -13 246 -10 250 3 2 6 22 10 43 10 77 0 183 23
197 42 7 10 18 18 23 18 14 0 101 72 94 78 -2 3 -11 0 -19 -7 -16 -13 -63 -5
-86 15 -13 11 -17 9 -29 -17 -11 -25 -15 -28 -28 -17 -8 7 -19 22 -24 35 -5
13 -16 23 -26 23 -10 0 -30 6 -45 14 -19 10 -28 11 -31 3 -5 -13 -145 -16
-165 -3 -7 4 -16 5 -21 2 -5 -4 -12 0 -14 6 -3 7 -6 9 -7 3z"></path>
<path d="M11675 14389 c-7 -10 10 -28 28 -29 12 0 8 17 -7 29 -11 9 -16 9 -21
0z"></path>
<path d="M17795 13800 c20 -23 29 -21 19 4 -3 9 -13 16 -22 16 -13 0 -12 -3 3
-20z"></path>
<path d="M17417 13603 c-9 -9 -9 -43 1 -43 18 1 34 19 29 34 -7 17 -19 21 -30
9z"></path>
<path d="M17482 13541 c4 -13 18 -16 19 -4 0 4 -5 9 -11 12 -7 2 -11 -2 -8 -8z"></path>
<path d="M17355 12645 c2 -22 4 -46 4 -52 1 -7 5 -13 11 -13 10 0 4 49 -11 85
-6 14 -7 7 -4 -20z"></path>
<path d="M14607 12603 c-11 -10 -8 -51 3 -58 6 -4 10 8 10 29 0 37 -2 41 -13
29z"></path>
<path d="M17840 12459 c0 -9 -7 -22 -15 -29 -19 -16 -19 -40 0 -40 9 0 21 -11
27 -25 9 -20 18 -25 49 -25 21 0 41 4 44 10 4 6 -1 7 -11 3 -13 -5 -15 -2 -9
15 4 14 2 22 -5 22 -6 0 -15 11 -20 25 -5 14 -16 25 -24 25 -8 0 -20 8 -25 18
-9 15 -10 15 -11 1z"></path>
<path d="M17985 12457 c-47 -18 -64 -57 -25 -57 13 0 18 -5 14 -15 -4 -8 -2
-15 4 -15 19 0 4 -70 -20 -90 -28 -24 -28 -24 -78 -4 -23 9 -43 14 -46 11 -3
-3 2 -19 11 -37 20 -38 15 -45 -22 -35 -15 5 -31 8 -35 7 -5 -1 -8 2 -8 7 0 5
-14 12 -31 16 -19 4 -33 15 -36 26 -3 11 -14 19 -28 19 -27 0 -59 34 -52 55 4
9 1 15 -7 15 -8 0 -16 9 -19 20 -8 30 -37 24 -80 -15 -31 -28 -46 -35 -79 -35
-23 0 -38 3 -35 7 4 3 23 6 44 5 28 -1 34 1 25 10 -7 7 -12 19 -12 28 0 48
-81 78 -124 45 -10 -8 -22 -12 -26 -10 -4 2 -21 -13 -39 -35 -20 -25 -27 -40
-19 -41 23 -2 -46 -17 -84 -18 -25 -1 -41 -7 -47 -20 -6 -10 -8 -21 -5 -24 4
-3 -3 -18 -15 -33 -11 -15 -21 -33 -21 -40 0 -8 -11 -16 -25 -20 -28 -7 -33
-35 -10 -54 8 -7 15 -18 15 -25 0 -6 9 -20 20 -30 11 -10 20 -21 20 -24 0 -10
-52 -31 -62 -25 -5 3 -16 0 -25 -7 -9 -8 -21 -14 -27 -14 -6 -1 -24 -7 -40
-13 -25 -11 -28 -16 -22 -43 5 -25 3 -30 -9 -25 -10 4 -15 -1 -15 -15 0 -11
-5 -30 -11 -41 -9 -16 -8 -23 2 -29 9 -6 10 -12 4 -16 -19 -14 -35 -52 -29
-68 4 -10 0 -15 -13 -15 -14 0 -28 -17 -49 -57 -15 -32 -34 -64 -41 -71 -7 -7
-13 -20 -13 -28 0 -8 -3 -14 -8 -14 -4 0 -15 -17 -25 -37 -19 -43 -39 -76 -49
-83 -3 -3 -10 -18 -13 -33 -4 -15 -15 -33 -24 -40 -14 -10 -26 -29 -36 -57 -7
-20 -19 -46 -24 -50 -3 -3 -13 -18 -22 -33 -22 -40 -172 -245 -244 -334 -33
-41 -64 -82 -70 -91 -5 -9 -36 -49 -67 -88 -32 -39 -54 -74 -51 -78 4 -3 1 -6
-6 -6 -7 0 -11 -6 -8 -12 2 -7 1 -58 -4 -113 -5 -55 -10 -116 -11 -136 -3 -32
-6 -36 -33 -36 -18 0 -36 9 -47 21 l-17 21 -2 -25 c-1 -24 -1 -23 -10 5 -4 17
-24 44 -42 62 -34 32 -35 32 -52 13 -10 -11 -21 -17 -25 -15 -4 3 -18 -4 -30
-15 -12 -11 -65 -52 -116 -92 -52 -40 -94 -76 -94 -80 0 -5 -5 -8 -11 -8 -6 0
-36 -22 -68 -50 -32 -27 -61 -50 -65 -50 -4 0 -26 -13 -49 -29 -73 -50 -180
-116 -224 -136 -24 -11 -43 -23 -43 -27 0 -5 -9 -8 -19 -8 -11 0 -22 -4 -25
-9 -3 -5 -22 -12 -41 -15 -19 -4 -35 -11 -35 -16 0 -6 -5 -10 -11 -10 -13 0
-60 -20 -153 -66 -37 -19 -75 -34 -82 -34 -8 0 -49 -16 -90 -35 -41 -19 -79
-35 -84 -35 -6 0 -10 -4 -10 -10 0 -5 -12 -10 -27 -10 -16 -1 -46 -9 -68 -20
-22 -11 -52 -19 -67 -20 -16 0 -28 -4 -28 -10 0 -5 -11 -10 -24 -10 -15 0 -26
-7 -28 -18 -4 -15 -1 -18 21 -15 14 3 33 7 41 11 8 3 49 11 90 18 41 7 103 18
136 23 100 17 305 60 364 76 30 8 71 18 90 21 19 3 44 9 55 14 17 6 132 36
175 44 18 4 43 13 87 32 17 8 36 14 42 14 6 0 19 4 29 9 23 12 52 23 142 56
41 15 91 34 110 42 19 8 44 19 55 23 82 33 165 80 165 94 0 6 -5 5 -12 -2 -18
-18 -30 -14 -19 7 6 10 8 20 6 22 -2 3 -7 34 -10 69 -5 50 -3 61 5 47 6 -10
13 -39 15 -65 2 -26 9 -48 15 -50 5 -2 10 -10 10 -18 0 -20 17 -17 33 6 8 11
28 23 45 26 18 4 32 10 32 15 0 5 6 9 13 9 6 0 41 15 77 34 36 19 85 44 110
57 25 12 47 25 50 28 3 3 19 13 35 21 17 8 44 24 60 37 17 12 42 25 58 28 15
4 27 10 27 14 0 4 15 13 34 21 31 12 51 39 47 63 -1 5 3 6 8 3 5 -3 14 1 21 9
7 8 18 15 24 15 7 0 30 18 51 40 21 22 43 40 47 40 12 0 128 97 149 124 9 12
65 64 124 116 59 52 132 126 163 165 31 38 75 88 97 110 43 44 59 66 75 103 5
12 16 25 24 28 8 3 17 16 20 30 4 13 13 24 21 24 8 0 12 6 9 13 -3 8 2 20 11
27 8 7 15 18 15 25 0 6 9 20 20 30 11 10 20 24 20 32 0 7 7 16 15 19 8 4 15
11 15 17 0 6 9 20 20 32 29 31 31 78 5 83 -11 2 -27 6 -35 9 -8 3 -19 5 -24 4
-5 -1 -32 20 -60 48 -28 27 -64 53 -81 57 -60 14 -120 45 -106 53 11 7 11 16
1 45 -12 37 -6 75 14 89 8 5 6 12 -6 21 -10 7 -18 23 -18 34 0 20 57 150 71
162 3 3 18 26 33 53 15 26 32 45 36 42 5 -3 14 8 21 24 20 46 92 75 160 66 52
-7 106 -29 121 -50 5 -6 8 -6 8 -1 0 6 8 1 18 -10 10 -10 35 -30 54 -44 25
-16 39 -35 42 -56 4 -17 15 -39 26 -49 11 -10 20 -24 20 -32 0 -7 7 -13 15
-13 10 0 17 14 21 40 4 22 11 43 15 46 14 8 0 24 -22 24 -10 0 -19 7 -19 15 0
19 24 19 40 0 18 -21 27 -11 35 38 4 23 12 47 17 54 5 7 7 17 3 23 -3 5 -1 10
4 10 6 0 11 9 11 19 0 11 5 23 10 26 6 3 10 18 10 33 0 15 7 49 15 76 16 54
19 87 8 85 -5 -1 -21 -6 -38 -12z m-115 -277 c0 -5 -10 -10 -22 -9 -22 0 -22
1 -3 9 11 5 21 9 23 9 1 1 2 -3 2 -9z m18 -38 c5 -17 -13 -15 -27 2 -10 12 -9
14 5 12 10 -2 20 -8 22 -14z m-731 -24 c-3 -7 -5 -2 -5 12 0 14 2 19 5 13 2
-7 2 -19 0 -25z m-217 -1392 c0 -2 -8 -10 -17 -17 -16 -13 -17 -12 -4 4 13 16
21 21 21 13z m-297 -203 c-4 -10 -2 -14 4 -10 15 10 24 -20 10 -31 -29 -22
-32 -20 -29 19 2 21 8 39 13 39 4 0 5 -7 2 -17z m-613 -228 c0 -7 -4 -17 -10
-20 -5 -3 -10 -16 -10 -28 0 -12 -5 -29 -11 -37 -8 -12 -9 -9 -7 12 2 18 -4
32 -16 41 -19 14 -19 14 0 39 15 20 23 24 37 17 9 -6 17 -16 17 -24z"></path>
<path d="M17697 12374 c-9 -10 19 -34 39 -34 16 0 15 2 -4 20 -23 22 -26 23
-35 14z"></path>
<path d="M17507 12115 c-4 -8 -18 -15 -33 -15 -23 0 -25 -2 -14 -15 18 -22 7
-28 -60 -33 -33 -2 -60 -9 -60 -14 0 -5 9 -7 19 -3 21 6 36 -9 25 -26 -4 -8
-9 -7 -15 2 -6 9 -7 0 -3 -21 4 -19 16 -43 28 -53 17 -15 18 -18 3 -13 -28 9
-60 -31 -68 -87 -7 -41 -4 -56 14 -93 12 -24 27 -44 32 -44 17 -1 70 -60 54
-60 -40 -1 26 -18 114 -30 93 -12 127 -9 98 9 -10 7 -9 10 8 16 11 3 21 13 21
21 0 8 4 14 9 14 5 0 11 9 14 19 5 22 -10 31 -49 31 -14 0 -31 6 -38 13 -11
10 -11 16 5 38 25 36 41 79 29 79 -6 0 -10 9 -10 19 0 11 -5 23 -11 27 -6 3
-9 17 -6 29 3 17 -1 25 -16 29 -23 6 -13 26 14 26 12 0 19 7 19 20 0 11 -7 20
-15 20 -8 0 -15 5 -15 11 0 7 10 9 25 7 17 -4 29 0 35 11 5 9 10 11 10 4 0 -6
6 -18 13 -25 27 -29 65 -84 71 -105 6 -18 3 -23 -11 -23 -11 0 -28 -7 -39 -15
-17 -13 -17 -14 -1 -15 10 0 17 -8 17 -20 0 -17 5 -19 25 -14 19 5 25 2 25
-10 0 -9 3 -16 6 -16 11 0 43 45 44 62 0 9 7 24 16 32 8 9 11 16 7 16 -5 0
-27 34 -48 75 -22 41 -44 76 -50 77 -5 0 -15 2 -21 2 -6 1 -24 13 -41 27 -26
22 -42 26 -101 28 -54 1 -71 -2 -75 -14z m63 -75 c0 -5 -4 -10 -10 -10 -5 0
-10 5 -10 10 0 6 5 10 10 10 6 0 10 -4 10 -10z m-30 -14 c0 -8 -5 -18 -10 -21
-6 -4 -8 -10 -5 -15 6 -10 -15 -60 -25 -60 -4 0 -7 -8 -7 -17 1 -58 -4 -73
-21 -73 -10 0 -22 3 -26 8 -4 4 -12 7 -17 7 -39 0 35 166 80 178 28 8 31 7 31
-7z m8 -282 c17 -18 -1 -46 -41 -64 -23 -10 -32 -10 -35 -2 -2 7 -8 9 -14 6
-7 -5 -9 3 -4 22 4 16 8 29 9 30 39 24 66 26 85 8z"></path>
<path d="M12225 9750 c-3 -5 -2 -10 4 -10 5 0 13 5 16 10 3 6 2 10 -4 10 -5 0
-13 -4 -16 -10z"></path>
<path d="M12185 9729 c-4 -5 -12 -8 -18 -6 -7 2 -27 -5 -45 -15 -18 -10 -38
-18 -45 -18 -7 -1 -30 -9 -52 -20 -22 -11 -46 -19 -52 -20 -7 0 -13 -4 -13
-10 0 -5 -9 -10 -20 -10 -11 0 -20 -7 -20 -15 0 -22 38 -18 95 11 28 14 60 31
72 37 13 7 23 15 23 19 0 3 12 9 28 13 29 6 85 44 65 45 -6 0 -15 -5 -18 -11z"></path>
</g>
</svg>
